<!-- Generator: Adobe Illustrator 25.3.0, SVG Export Plug-In . SVG Version: 6.00 Build 0)  -->
<svg version="1.1" xmlns="http://www.w3.org/2000/svg" xmlns:xlink="http://www.w3.org/1999/xlink" x="0px" y="0px"
	viewBox="0 0 3000 1536" xml:space="preserve">
	<g id="map">
		<path d="M2250.5,427.7c0.9,0.3,0,2.4-0.1,3.1c-1.7,5.5-4.3,10.7-6.8,15.9c-1.3,2.4-2.4,5-4,7.2
		c-0.7,1.8-1.9,3.1-3.1,4.6c-1.6,2-3.5,3.8-5.5,5.3c-1,0.9-1.7,2-2.2,3.1c-0.3,1.6-1.5,1.6-2.8,0.9c-1.2,0.2-2,1.1-3,1.9
		c-0.6,0.5-1.3,0.8-1.9,1.3c0.6,1.4-0.2,2.6-1.7,2.6c-0.5,0.1-1-0.2-1.5-0.1c-2.7,1.6-4.9,3.9-7.2,6c-5,5.9-10.4,11.6-14.3,18.3
		c-0.6,1.2-1.1,2.4-1.6,3.6c0,0.1-0.1,0.2-0.1,0.3c0.1,0.1,0.1,0.3,0,0.4c-0.8,1.3-1,2.9-1.6,4.3c-0.1,0.3-0.2,0.5-0.2,0.8
		c0.1,1.9-0.1,2-2,2c-3.2,5-6,10.3-8.4,15.8c-1.2,4.1-1.1,8.6-3.2,12.4c-0.8,2.1-2.3,3.9-3.4,5.7c-0.9,1.6-1.5,3.4-2.5,5
		c-4.1,6.4-8,13-10.9,20c-0.7,2.4-0.5,5-0.5,7.4c0.1,6.3,0.9,12.6,1.8,18.8c0.9,9.1,1.1,18.3,0.7,27.4c-0.1,1.7,0,3.4-0.3,5.1
		c0,0.1,0,0.2,0,0.3c-0.1,0.5-0.1,1-0.2,1.5c0,0,0,0.1,0,0.1c0.1,0.7,0,1.3-0.2,1.9c-0.4,3.8-0.9,7.5-1.8,11.2
		c-1.2,8.4-2.3,16.9-4.4,25.1c-1.4,4.3-3.2,8.4-4.6,12.7c-3.5,10.6-5.8,21.7-10.5,31.9c-5.2,9.8-12.5,18.3-19,27.2
		c-1.1,1.6-1.9,3.5-2.8,5.2c-0.7,1-1.5,2-2.3,2.9c-0.1,0.3-0.5,0.7-0.9,1.1c-0.3,0.3-0.5,0.6-0.8,0.9c-0.2,0.3-0.5,0.8-0.8,0.8
		c-1,1.1-2.4,2-3.5,2.9c-1,0.9-2.1,1.8-3,2.7c-2,1.6-4.3,2.8-6.4,4.2c-2,1.6-4,3.1-6.1,4.4c-4.1,2.9-8.5,5.3-12.6,8.3
		c-5,3.8-10.3,7.1-15.3,10.9c-5.4,3.8-11,7.1-16.1,11.3c-9.1,7.4-18.1,15-27.8,21.5c-0.6,0.5-1.2,1.1-1.8,1.6c0,0.3-0.5,0.7-0.7,0.9
		c-0.6,0.8-1.6,1.6-2.7,1.2c-3.9-1.2-6.1-5-9.3-7.2c-1.7-0.1-3.5,0.4-4.9,1.4c-0.4,0.4-0.7,0.9-1.2,1.2c-0.5,0.3-1.1,0-1.5-0.1
		c-4.1-0.8-8.2-1.6-12.3-1.5c-6.7-0.3-13.3,0.1-20,0.3c-0.6,0-2.4,0.3-3.7,0.2c-0.1,0-0.2,0.1-0.3,0.1c-0.4,0-0.8,0-1.2,0
		c-0.1,0-0.1,0-0.2,0c-9.3-0.1-18.2-3.1-26.9-6.1c-5.6-1.7-11.6-2.3-17.1-4.2c-0.7-0.6-0.8-1.7-0.5-2.6c0.2-0.8,0.4-2,1.5-1.9
		c8.9,1.7,17.5,4.8,26.2,7.4c3.1,1,6.3,1.4,9.4,2c2.6,0.5,5.4,1.3,8.1,0.9c0.4-0.1,0.6-0.3,1-0.5c0-0.1,0.1-0.2,0.1-0.3
		c0.4-0.7,0.8-1.4,1.1-2.1c1.1-2.1,2.1-4.4,3.4-6.3c1-1.2,1.8-2.5,2.4-3.9c0.4-1.1,1-2.3,0.4-3.5c-0.7-1.6-2.1-2.6-3.3-3.8
		c-2.4-2.5-5.2-4.5-7.9-6.5c-2.6-1.3-4.7-3.7-7.3-4.8c-1.9,1.6-1.9,4.2-2.9,6.3c-1.8,4-4.2,7.7-5.8,11.8c-0.3,0.6-0.8,2-1.7,1.4
		c-0.8-1.3-1.6-2.8-2.3-4.2c-0.1-1.2,0-2.5,0-3.8c-0.1-2.8,0.1-5.5,0.4-8.3c0-0.1,0-0.2,0-0.3c0-0.1,0-0.2,0-0.2
		c0-0.9-0.1-1.8,0.2-2.7c0-0.1,0-0.2,0-0.2c-0.9-3.1-3.9-5.1-6.1-7.3c-2.1-2.2-4.4-4.4-6.1-7c-1.6-2.2-3-4.5-4.9-6.4
		c-0.3-0.3-0.6-0.6-0.8-0.9c-3.9-3.1-7.5-6.8-12.1-8.8c-1.9-0.7-4.2-0.5-5.9-1.8c-0.7-0.4-1.3-1.2-1.8-1.8c-1.5-1.8-3.2-3.3-5-4.8
		c-5.6-4.3-11.4-8.4-17.8-11.2c-1-0.7-2-1.5-2.7-2.5c-0.6-1.3-1.1-2.7-2-3.8c-2.9-4.3-7.4-7.3-11.6-10.3c-2.8-1.4-5.8-2.5-8.7-3.6
		c-1.3-0.5-2.8-0.8-4-1.6c-1.1-0.4-2.3-0.7-3.3-1.3c-1.9-1.1-3.7-2.4-5.3-3.8c-0.6-0.6-1.1-1.4-1.2-2.3c-0.1-0.7-0.1-1.6-0.5-2.2
		c-0.6-0.6-1.4-0.7-2.1-0.8c-1.2-0.2-2.2-0.8-3.2-1.4c-2.4-1.9-5.3-3.6-8.5-3c-0.4,1,0.2,2,0.6,2.8c0.5,1.1,1.1,2.2,1.9,3.1
		c1.1,1.3,2.3,2.6,3.4,3.9c0.2,0.2,0.4,0.5,0.3,0.9c-0.1,0.6-0.8,0.7-1.2,0.4c-2.5-1.8-4.4-4.4-5.7-7.1c-0.8-1.4-0.6-3-1-4.5
		c-4-3.6-8.5-6.4-13.2-8.9c-5-2.8-10.1-5.3-15.8-6.1c-4.5-0.9-9.1-1.7-13.7-1.4c-4.3-0.1-8.6,1.8-12.8,1c-1.5-0.3-2.7-1.5-3.9-2.5
		c-2.5-1.1-5.2-0.9-7.9-0.9c-1.8,0.1-3.7-0.1-5.4,0.2c0,1.3-0.3,3.9-2.1,2.5c-1.7-1.1-3.2-2.6-3.9-4.6c-0.7-1.6-0.7-3.4-0.3-5.1
		c0-1.2,0-2.4,0.3-3.6c-0.4-0.1-0.7-0.3-1-0.5c-1.8-0.9-3.8-1.7-5.5-2.8c-1.7-1.1-3.2-2.7-5.1-3.5c-0.6,0-1,0.7-1.7,0.8
		c-1.9,0.6-3.9,0.7-5.9,0.7c-2-0.1-3.8-1.1-5.8-1.2c-2.9-0.2-4.5,0.2-5.9-2.8c-1.5-2.8-2.4-6.9-6.1-7.3c-2.3-0.6-4.2-2.2-6.5-2.7
		c-1.9-0.2-4.3,1-5.7-0.8c-0.8-0.7-0.7-1.9-1-2.8c-0.5-1-1.3-1.8-2.2-2.5c-1.6-1.4-2.9-3.2-4-5c-2.2-1.8-3.2-4.5-3.2-7.3
		c-0.3-1.2-1.2-2.3-2.5-2.3c-1.8-0.3-3.5-0.3-5.3-0.4c-1.7-0.4-3-1.6-4.3-2.7c-3.1-2.4-5.3-5.8-8.8-7.6c-0.7-0.4-1.6-0.7-2.4-1
		c-0.9-0.2-1.8-0.5-2.7-0.7c-0.9-0.3-1.8-0.2-2.7-0.1c-0.8,0-1.6-0.3-2.3-0.2c-1.2,0.4-1.8,1.8-3.1,1.7c-3.6-0.5-6.2-3.7-9.7-4.1
		c0.2,1.6,0.4,4.2-1.8,2c-1.6-1.5-3.2-3.3-5.4-3.9c-1.5-0.5-3-0.3-4.5-0.1c-2.4,0.2-5,0.7-7.2,1.7c-1.2,0.6-2.6,2.6-4,1.2
		c-1.5-2-2.8-4.3-4.9-5.7c-4-2.7-9.1-3.4-9.1-9.3c0-0.5,0-1.1-0.4-1.5c-0.9-1-2.1-1.6-3.2-2.3c-1.5-0.8-2.8-2.1-4.3-2.9
		c-2.1-0.8-4.5-2.2-4.1-4.9c0.2-1.3,0.2-2.6-0.7-3.6c-1.4-0.9-3.2-0.4-4.6,0.2c-0.9,0.5-2,0-2.3-1c-0.1-0.6,0-1.2-0.1-1.7
		c-1.3-1.8-3.2-3.2-5.3-3.7c-0.8-0.2-1.8-0.5-2.3-1.2c-0.4-0.6-0.6-1.1-0.9-1.7c-0.3-0.8-0.8-1.6-0.4-2.4c0-0.4-0.2-0.8-0.6-0.9
		c-5.2-2.2-19.3,7.4-19-3c-0.2-3.7-3.5-5.8-5.9-8.1c-3-2.5-5.8-5.7-9.6-7c-0.9-0.2-1.8-0.3-2.6,0c-1,0.4-1.6,1.1-2.3,1.8
		c-0.8,0.8-1.6,2.3-3,2c-3-1.3-2.9-5.4-4.5-7.9c-1.4-2.6-3.9-4.4-6.1-6.2c-1.7-1.3-3.7-2.3-5.9-2.4c-2.1-0.3-3.9,1-5.8,1.8
		c-3.6,0.9-6.5-2.8-9.9-3.2c0.5,1.9-0.3,5.8-2.8,5.6c-5.2-1.5-9.7-4.6-14.4-7c-2.9-1.6-5.9-3.2-9.2-3.8c-2.7-0.8-5.7-0.4-8.2-1.6
		c-0.3-0.2-0.7-0.4-1-0.6c0,0,0,0,0,0c-1.1-0.7-2.2-1.5-3.3-2.2c-1.6-0.7-3.5-1.1-5.2-1.2c-0.5,0-1.1,0-1.5,0.2
		c-0.4,0.2-0.5,0.7-0.8,1.1c-1.2,1.8-3.5,3.2-4.8,0.7c-0.4-1.2-1.6-1.3-2.7-1.6c-2.4-0.6-4.1-2.8-4.8-5.1c-0.9-1-2.6-0.8-3.9-1.2
		c-3.5-0.6-7.1-1.1-10.5-2.4c-3.6-1.7-6.9-4.4-9.4-7.5c-1.6-2.6-1.4-6-2.2-8.9c-10.4,0.1-22.8,1.5-30.8-6.5
		c-1.6-1.3-2.6-3.3-4.7-3.7c-1,0.1-1.9,0.7-2.9,0.9c-0.5,0.2-1.1,0.1-1.5-0.2c-1.3-1-1.6-3.3-3.4-3.6c-1,0.3-1.9,1.2-3,1.2
		c-0.5-0.1-0.9-0.4-1.2-0.8c-0.3-0.5-0.2-1.1-0.3-1.6c-1.2-0.2-0.9-1.3-1.1-2.2c-0.7-0.4-1.7-0.4-2.4-0.3c-1.6,0.4-3.3,0.7-5,0.5
		c-1,0.1-1.8-0.4-2.4-1.3c-0.4-1.2-0.3-2.5-0.5-3.7c-1.1-1.4-3.3-0.3-4.8-0.4c-3.1,0.5-3.1-2.2-3.9-4.4c-0.6-0.2-1.3,0-1.9-0.1
		c-0.4,0-0.8-0.1-1.1,0.1c-0.5,0.4-0.6,1.1-1.2,1.4c-0.6,0.3-1.3-0.1-1.8-0.5c-0.5-0.6-0.3-1.4-0.6-2c-1.6-1.9-3.8-3.2-5.9-4.8
		c-0.1,0-0.1-0.1-0.2-0.1c0,0,0,0,0,0c-0.4-0.3-0.8-0.6-1.1-0.9c0,0-0.1-0.1-0.1-0.1c0,0,0,0,0,0c-2.6-2.4-4.5-5.5-7-7.9
		c-2.7-1.3-5.8-1-8.7-1.7c-1-0.1-2.5,0.1-2.7-1.2c-0.5-3.4-0.8-6.8-1.2-10.2c-0.3-1.6-0.5-3.5-2.4-4c-1.8-0.9-3.8-2-5.8-1.7
		c-1,0.3-2.1,0.6-3.1,0.2c-1.6-0.6-3.4-0.9-4.9-1.7c-0.7-0.6-1.3-1.4-1.7-2.1c-0.3-1.1-0.2-2.4-0.8-3.4c-1.2-0.6-2.6-0.7-4-0.5
		c-2.3,0.5-4.6-0.4-4.6-3c-0.3-2.1-2.9-5.8,0.1-6.9c-2.3-3.3-5.4-6-7.8-9.2c-0.7-0.7-1.2-1.6-2.2-1.7c-0.5-0.1-1.1,0.4-1.7,0.1
		c-0.6-0.3-1.1-1-1.8-1.3c-0.2-0.1-0.3-0.2-0.3-0.3c-0.8-0.5-1.7-0.9-2.6-1.2c-1.9-0.5-5,0.6-5.8-1.8c-0.1-0.3,0-0.4-0.1-0.7
		c-0.4-1.1-0.5-2.2-1.3-3.1c-1.4-0.6-2.3,1.3-3.3,2c-0.7,0.4-1.5,0.3-2.2,0.1c-0.3-0.1-0.6-0.5-0.9-0.5c-0.6,1.2-2.2,1.8-3.1,0.5
		c-0.2-0.6-0.5-1-0.9-1.5c-0.5-0.2-1.1-0.4-1.6-0.4c-3.7-0.2-7.5-0.3-11.2,0c-2.9,0.1-6.2,0.5-8.1,2.9c-1,1.4-2,2.9-3,4.2l0,0
		c-0.1,0.2-0.2,0.4-0.3,0.5c-0.4,0.7-0.6,1.3-1,1.9c-0.9,1.5-1.4,3.3-0.8,5.1c0.1,1.3,4.6,5.7,2,5.9c-1.7,0-3.4,0.1-5.1,0.1
		c-0.9,0.1-2.1-0.3-2.8,0.3c0.1,0.1,0.2,0.1,0.2,0.2c1.8,1,3.6,1.9,5.3,2.9c2.4,1.6,4.5,1.2,1.9,4.3c0.1,0.6,0.5,1,0.9,1.5
		c0.5,1-0.1,1.7-0.9,2.1c0,1.4,0.3,2.8,1.3,3.8c0.6,0.6,1.6,0.9,1.9,1.7c0.1,0.5-0.3,1.1-0.7,1.3c0.3,1.1,1.1,1.9,1.7,2.8
		c1.5,1.7,2.6,3.8,4.5,5.2c1,0.5,2.3-0.3,3.3,0.4c0.2,0.2,0.3,0.4,0.3,0.7c0.2,1.9,0.4,3.8,0.5,5.7c0.2,2.2,0.3,4.5,0.9,6.6v0
		c0.2,0,0.4,0.2,0.6,0.4c1.9,1.6,3.4,3.7,5.4,5.2c0.1,0.1,0.1,0.1,0.1,0.2c2.5-0.1,5.1-0.1,7.6,0c1.2,0,2.3,0,3.5-0.1
		c3.2-2.6,6-5.7,9.7-7.6c-2.7-4-5.2-8.2-7.5-12.4c-0.8-1.4-1.6-2.9-2.2-4.4c0-0.2,0-0.4,0.2-0.5c0.8-0.4,1.7,0,2.5,0.2
		c0.5,0.2,1,0.3,1.4,0.7c0.1,0.1,0.1,0.3,0.1,0.4c1.7,3.4,3.6,6.7,5.7,9.8c0,0.1,0.1,0.1,0.1,0.2c0,0,0,0,0,0c0.7,1,1.2,2.1,1.8,3.1
		c0.5,0.9,1.3,1.8,1.7,2.8c0.2,0.4-0.1,0.8-0.4,1.1c-0.1,0.2-0.3,0.4-0.5,0.6c-1.3,1.3-2.8,2.3-4.3,3.4c-1.9,1.4-3.6,2.9-5.4,4.3
		c-0.5,0.5-1,1.2-1.7,1.2c-2.9,0.3-5.8,0.3-8.6,0.4c-0.4,0-1.3,0-1.9-0.1h0c-1.7,0-3.4-0.1-5.1-0.4c-2.6-0.4-4.1-3.6-6.9-3.1
		c-3.5,1.2-6,4.5-9.6,5.5c-0.7,0.1-1.3,0.1-2,0c-0.7-0.1-1.4-0.1-2.1,0c-0.6,0.3-1,1-1.2,1.6c-0.4,2.4-1,4.8-0.9,7.2
		c0.4,1.9,1.6,4.8-1.3,4.8c-0.1,0-0.2,0-0.3,0c-2.3-0.5-4.1-2.2-6.3-2.9c-7.1-2.2-15.5-3.6-22.1,0.6c0,0,0,0.1,0,0.1
		c-1.8,2.3-3.4,4.6-4.8,7.1c-0.1,0.3-0.1,0.5-0.1,0.8c0.9,1.7,2.4,2.9,3.9,4.1c0.9,0.7,2.2,1.5,2,2.9c-0.2,1.8-0.8,3.7-0.2,5.4
		c1.8,0.1,3.5-0.5,5.2-0.5c0.4,0,0.8,0.1,1,0.4c0.7,1,1.3,2.3,1.9,3.4c1.2,1.9,2.6,3.8,3.7,5.7c0.3,0.6,0.5,1.3,0.1,1.9
		c-5.2,3.3-17.1,2.6-18,10.3c-0.1,2.2-0.1,4.9,1.5,6.6c1,0.7,2.4,0.4,3.6,0.7c3.1,0.6,5.5,2.9,8,4.6c1.8,1.2,2.7,2.6,1.9,4.7
		c-0.5,1.6-1.1,3.6-2.7,4.4c-3.4,0.5-6.8-0.1-10.2-0.2c-2.5,0-5.1-0.4-7.5,0.6c-1.9,1.4-3,3.8-5.4,4.7c-3.4,1.3-7.4,0.9-10.9,1
		c-4.2-0.6-9.3-0.4-12-4.3c-0.9-1-1.8-2.3-3.3-2.3c-2.3-0.3-4.8,0-6.7,1.4c-1.6,1-3.8,1.8-5.7,0.9c-0.2-0.2-0.3-0.4-0.3-0.7
		c0.2-1.7,1.3-3.1,1.4-4.8c-0.3-0.3-0.8-0.5-1.1-0.6c-2.9-0.6-6-0.7-8.9-1.2c-3.1-0.3-6.4-0.4-9.3,0.9c-1.5,0.9-2.5,2.3-3.6,3.7
		c-0.2,0.2-0.3,0.4-0.5,0.6c-0.1,0.1-0.2,0.2-0.3,0.2c-2.9,3.4-5.9,6.7-7.8,10.7c-0.9,2.5-1.4,5.4-1.4,8c0.2-0.1,0.4-0.1,0.6-0.1
		c1.4,0,2.2,1.4,2.6,2.6c1.3,3.3,1.6,6.8,1.8,10.3c0,2.2-1.7,3.8-3.1,5.4c-2.5,3-5.8,5.3-8.1,8.5c-1.6,2.3,0,5,0.9,7.2
		c2.1,4.2,4.2,8.6,7.9,11.5c0.8,0.4,1.8,0.5,2.7,0.6c0.2-0.1,0.4-0.1,0.6-0.1c0.5,0,0.9-0.1,1.4-0.2c1.7-0.5,2.9-1.8,4.4-2.7
		c4.7-2.6,8.7-6.2,13.1-9.3c2.2-1.9,4.4-3.9,6.3-6.1c0.7-0.7,1.4-1.7,2.4-2c1.1,0,0.6,1.3,0.2,1.9c-0.8,1.2-1.4,2.5-2.2,3.7
		c-1.8,2.9-4.3,5.2-6.5,7.8c-0.3,1-0.8,2.5-1.9,2.7c-0.3,0-0.6,0-0.9,0.1c-2.4,1.6-4.8,3.7-6.3,6.2c-1.6,3.5-3,7.3-2.8,11.2
		c0.9,4,3.6,7.4,4.1,11.5c0,1.8-1.2,3.4-1.7,5.1c-0.1,0.5-0.1,0.9-0.1,1.4c0,0.2,0.1,0.5,0.1,0.7c0.3,1.3,0.8,2.5,1.5,3.6h0
		c0.5-0.2,1-0.6,1.5-0.2c0.5,0.7,0.2,1.8,0.2,2.6c0,0.1,0,0.2,0,0.4c0.3,0.6,0.6,1.3,0.8,1.9c0.5,0.1,1,0.4,1.2,0.9
		c0.1,0.7,0,1.4-0.2,2.1c0.1,0.6,0.3,1.1,0.4,1.7c1.1,4.4,0.9,9.1,0.5,13.6c-0.5,2.1-0.9,4.3-0.6,6.5c0.2,1.5,1.2,2.8,1.4,4.3
		c0.7,3.3-0.6,6.7-1.5,9.8c-0.6,1.1-1.1,2.6-2.5,2.9c-1.4,0.2-2.5,1.1-3.4,2.2c-0.6,1.9-0.2,4.9-2.7,5.4c-1.9,0.1-3.9-0.7-5.7,0.2
		c-0.2,0.1-0.6,0.3-0.9,0.4c-2.4,1.7-4.8,3.3-7,5.2c-5.4,3-8,8.7-10.2,14.3c-2.7,6.4-4,13.1-3.4,20c0,7.2,1.1,14.3,3.2,21.1
		c1.4,4.1,3.1,8,5.5,11.7c2.7,4.5,5.2,9.3,9.3,12.6c0.4,0.4,0.9,0.8,1.1,1.3c0.1,0.2,0,0.4-0.1,0.5c0.2,1-1.6,3.6-1.8,4.2
		c-1.1,1.7-1.6,3.7-3,5.1c-1.8,1.5-4.4,1.6-6.2,3.2c-2.3,3-0.8,6.7-1.1,10.2c0.4,0.5,0.8,1.3,1.2,1.5c0.5,0.6,1.2,0.8,1.7,1.3
		c0.6,1-1,1.6-1.8,1.4c-1.4-0.4-2.8-0.3-4.3-0.2c-1.9,0.7-4.2,1.4-6.1,0.4c-2.9-1.1-4.7-3.8-7.3-5.3c-4.8-2.4-8.5-0.5-10.4,4.3
		c-0.7,1.7-1.4,3.7-0.1,5.3c1,1.4,2.2,2.8,3.3,4.1c1.4,1.6,3.1,3.1,3.7,5.2c0.7,2.7-2.1,4.6-2.8,6.9c-0.2,0.8-0.8,2.2-0.1,2.8
		c1.7,0.6,3.5,0.4,5.2,0.3c3.1-0.1,6.3,0.2,9,1.7c2.9,1.4,4.6,4.2,7.1,6.2c1.7,1.7,3.3,3.7,4.2,6c0.4,1,0.1,2-0.1,3
		c-0.5,1.8,0.1,3.5,1.9,4.2c1.6,0.7,3.1,1.7,4.7,2.2c1.3,0.5,2.7,0.3,4.1,0.4c4.6,0.1,2.5,5-0.2,6.3c-0.8,0.3-1.7,0.2-2.5,0.3
		c-1.7,0.4-2.2,2.2-3.3,3.3c-3.1,2.9-7.7,2.4-11.6,1.9c-1.3,0-2.9-0.9-4.1-0.1c0.1,1.6,1.1,2.9,1.6,4.3c0.6,1.8,1,3.7,0.9,5.6
		c0,0.7-0.1,1.4-0.3,2.1c0,0,0,0,0,0c0,0.2-0.1,0.4-0.1,0.6c0,0.1,0,0.1,0,0.2c0,0.1,0,0.3,0,0.4c-0.3,2.3,0,4.9-1.5,6.8
		c-2,2.9-4.9,3-7.8,1.4c-1.7-1-3.4-2.5-5.2-0.8c-1.1,1.1-0.7,2.6-0.5,3.9c0.1,0.5,0.3,1.1,0.7,1.5c2,1.7,5.4,2.1,6.3,4.9
		c0.3,2.2-1.3,4.5-0.7,6.7c1,0.3,2-0.3,2.7-0.8c0.8-0.5,1.4-1.1,2.2-1.6c1.3-0.6,2.8-0.6,4.2-0.4c1.9,0.3,3.7,0.5,5.6,1
		c0.5,0.1,1,0.2,1.4,0.1c0.3-0.1,0.4-0.5,0.5-0.7c0.4-1.5,0.8-3.1,1.5-4.6c1.4-3.3,3.5-6.4,6.2-8.8c1.6-0.9,3.6,0,4.7,1.3
		c1.1,1.2,2.7,1.9,3.2,3.5c0.3,1.1-0.3,2.3-0.1,3.5c0.7,2.2,2.5,4,4.3,5.3c2.5,1.9,5.2,3.1,8,4.4c1.8,0.6,3.9,0.8,5.4,2
		c1.4,1.3,1.1,3.6,1.9,5.1c3.5,2.1,3.2,4.3,2.7,7.9c0.2,1.5,1.1,2.6,1.9,3.8c1.4,1.8,2.5,3.7,3.6,5.7c1,2.4,1.7,5,1.7,7.6
		c-0.4,1.2-1.9,1-2.9,0.9c-6.1-1.6-12.2-5.1-17.9-8c-2.9-1.7-5.7-3.5-9.1-3.6c-1.5-0.5-3.2-1.1-4.2-2.5c-0.9-2-2.4-3.9-4.4-4.9
		c-4.5-1.9-8.7-4.4-13-6.8c-1-0.6-2-1.3-3-1.7c-1.2-0.2-2.3-0.1-3.5-0.1c-4.7-0.6-11.5-1.2-15.9-2.1c-4.8-1.2-9.1-2.8-13.5-5.1
		c-3-1.3-5.4-3.5-8.2-5.1c-5.4-3.1-10.9-5.7-16.2-8.9c-1.4-1-2.5-2.6-4-3.6c-2.2,0-4.3,0.7-6.4,0.1c-4.2-1.1-8.4-2.6-12-5
		c-3.3-2.2-6.1-5.3-9.9-6.8c-1.9-1-3.8,0.1-5.9-0.1c-2.1-0.4-4.1-1.6-5.3-3.4c-1.2-2.6-2.5-5.2-3.1-8c-1.4-0.3-2.8,0.5-4.2,0.5
		c-0.6,0-0.9-0.4-1.2-0.9c-1.2-1.8-2.1-4.1-4.1-5.1c-1.7,0.7-3.1,2.1-5.1,2.1c-4.2-0.5-5.5-5.4-6.7-8.9c-0.7-2-1.1-4.2-1.9-6.2
		c-1-1.9-2.3-3.8-4.1-5c-3.5-2.1-7.8-1.4-11.5-3c-3.2-2-5.7-5-9.8-4.8c-4.1-0.4-8.4-0.8-12.2-2.5c-1.8-0.9-2.8-2.9-4.6-3.7
		c-2.6-0.9-5.3-1.3-7.9-2.3c-1.1-0.6-2.1-1.5-2.9-2.5c-0.8,0.4-1.8,0.5-2.6,0.6c-0.1,0-0.2,0.1-0.2,0.2c0.1,1.2-0.1,2.4-0.7,3.5
		c-0.8,1.5,0,3,1.4,3.8c0.6,0.3,1.6,0.6,1.3,1.5c-0.6,0.9-1.6,1.6-2.6,1.9c-0.5,0.2-1.2,0.1-1.7,0.3c-0.2,0.1-0.3,0.3-0.4,0.5
		c-0.3,0.6-0.9,1-1.5,0.8c-0.7-0.2-0.6-1.1-0.9-1.6c-1.1-0.2-2.6-0.6-3-1.8c-2.4-3.7-5.9-1.7-9.2-0.7c-1.1,0.4-2.3-0.1-3.3-0.3
		c-0.9-0.4-1.8-1-2.8-1c-0.5,0-1,0.2-1.6,0.2c-1.8-0.1-3.4-0.9-5.1-1.5c-1.1-0.6-2-1.4-3-2.1c-2.9-0.9-6.1-0.8-9-1.7
		c-0.3,0.2-0.9,0.2-1.3,0.4c-1.3,0.8-2.3,2-3.7,2.7c-1.1,0.6-2.3,0.7-3.5,0.7c-1.7,0.2-3.4,0.3-5.2,0.3c-2.9-0.6-5.7-1.3-8.4-2.5
		c-1.7-0.8-3.6-1.6-5.5-1.6c-2.2-0.2-5.7,1.7-7.2-0.5c-0.5-1.1-0.5-2.3-0.8-3.4c-0.9-2.1-2.6-3.8-3.8-5.7c-2.2-3.5-4.1-7.3-7.1-10.2
		c-1-1.2-2.7-1.5-3.7-2.7c-0.6-0.9-2.5-2.4-0.9-3.2c0.8-0.2,1.8,0.2,2.7-0.5c-1.4-2.9-3.6-5.6-5.1-8.5c-1-1.5-1.3-3.4-2-5
		c-1.4-0.1-3.4-0.4-3.7-2.1c-0.1-0.8-0.4-2,0.6-2.4c1.2-0.2,2.7,0.1,3.7-0.7h0c0.1-0.1,0.1-0.1,0.2-0.2c0,0,0,0,0.1-0.1
		c-0.4-1.1-1.6-1.7-2.3-2.7c-0.9-1-1-2.7-0.4-3.9c1-2,3.2-3.2,4-5.3c0.1-0.3,0.3-0.9-0.1-1.1l0,0c-0.3-0.2-0.6-0.3-1-0.3
		c-1.3,0.2-2.6,0.3-3.9,0.3c-1.8,0-1.4-1.8-0.8-2.9c0.5-1,1.5-1.5,2.2-2.3c0.4-0.6,0.9-1.2,1.1-1.9c0.1-0.6,0.2-1.2,0.4-1.7
		c1.3-2.7,4,0.8,5.3,1.7c-0.1-1.8-0.8-3.4-1.6-4.9c-0.7-1.4-1.3-3-2.5-4c-0.8,0-1.5,0.5-2.1,0.9c-0.3,0.4-0.7,0.8-1.2,0.8
		c-2.2,0-1.2-3.2-1.3-4.5c0,0,0-0.1,0-0.1c-0.6-0.2-1.3-0.4-2-0.4c1,1.5-0.6,2.1-1.9,2c-1-0.1-2.1-0.6-3.2-0.3
		c-0.2,1.1,0.4,2.1,0.8,3c0.3,1,0.2,2.1-0.2,3c-0.9,1.4-2.5,1.9-3.9,2.7c-2.1,1-4,2.3-5.9,3.5c-1.5,1.1-3.3,0.3-4.9-0.2
		c-1.8-0.4-3.8,0-5.5,0.5c-3.4,1.8-7.7,2.9-9.9,6.2c-0.5,0.8-0.2,1.8-0.9,2.5c-0.9,1-2.2,1.1-3.4,1.2c-2.8,0.7-5.1,2.6-7.7,3.7
		c-1.1,0.5-2.3,0.8-3.5,0.8c-0.7,0.1-1.1,0.9-1.2,1.5c-0.2,1.2-0.4,2.5-1,3.5c-0.2,0.7-0.8,1-1.4,1.2c-1.6,0.8-3.3,0.8-5,0.4
		c-0.9-0.1-1.9-0.5-2.7-0.2c-0.4,1.1-1.2,1.9-1.7,2.9c-0.9,1.2-2.4,1.9-3.9,1.5c-1.7,0-3.1-1.1-3.8-2.6c-0.3-0.9-0.6-1.9-0.9-2.8
		c-0.4-0.7-0.8-1.4,0.1-1.8c0.7-0.6,1.6-0.6,2.4-0.6c0-0.3,0.1-0.7,0.3-0.9c0.4-0.9,0.6-1.8,0.5-2.8c-0.1-1.4-1.2-2.3-1.8-3.5
		c-0.4-1.2-0.8-2.5-0.2-3.7c0.5-0.8,1.7-0.7,2.6-0.5c0.4,0.1,0.9,0.3,1.3,0.1c0.1-0.4,0.1-0.9-0.1-1.3c-0.6-1.3-1.4-2.6-2.1-3.8
		c-0.8-1.3-1.8-2.6-2.2-4.2c-0.9-1.5-0.6-3.1,0.1-4.6c0.3-0.7-0.1-1.7-0.3-2.4c0-0.2,0-0.4,0.1-0.7v0c0,0,0-0.1,0-0.1
		c-0.3-0.9-1.1-1.7-1.9-2.2c-2.9-1.3-6.2-3.9-5.8-7.4c-0.3-1.2-0.8-2.3-0.8-3.6c-0.2-1-1.1-1.4-1.7-2.1c-0.9-1.2-1.3-3-0.4-4.2
		c0.5-0.6,1.1-1.3,1.2-2.1c-0.3-0.5-0.6-1-1.1-1.2c-2.8,1.1-5.8,2.5-7.4,5.1c-1,2.7-3.7,4.3-6.3,5.3c-1.6,0.6-3.2,1.1-4.6,2
		c-1.1,0.8-1.9,1.8-2.9,2.7c-2.4,2.1-5.9,3.5-9.2,3.1c-0.8,0.2-1.4,0.7-2.2,0.8c-0.7,0.1-1.5,0-2,0.5c-0.4,0.3-0.6,0.6-0.8,1
		c-1,0.9-2.8,0.8-4,0.5c-2-0.6-3.2-2.6-5-3.5c-0.4-0.1-0.9-0.3-1.4-0.2c-0.6,0.4-1.3,0.6-1.6,1.3c-0.5,1.8-2,1.7-3.5,1.6
		c-0.4,1-0.4,1.9-0.5,2.9c0,0.8-1,1-1.7,0.9c0,0-0.1,0-0.2,0c0,0,0,0,0,0c-0.1,0.2-0.4,0.3-0.6,0.1c-2.3-0.1-4.6,0.1-6.8,0.1
		c-3.8-0.1-8,0.1-11.5-1.6c-1.6-1.5-3-3.1-4.9-4.2c-4.5-1.2-10.4-1.2-13.1-5.6c-1.5-2.8-2.5-5.9-3.7-8.8c-0.8-2.2-2-4.4-4.2-5.6
		c-4.1-2-9.2-3-12.3-6.5c-1.1-1.5-1-2.6,0.4-4c0.8-0.9,2.1-1.1,3.1-1.7c-0.5-0.9-1.5-1.2-2-2c-0.2-1-0.5-1.9-1.3-2.6
		c-0.3-0.2-0.8-0.2-0.9-0.6c-0.2-1.5,1.1-2.8,1.9-3.9c0.3-0.5,0.9-1.1,0.4-1.7c-1.7-2-4.2-3.3-6.4-4.7c-3.5-2.1-6.7-4.7-10.3-6.5
		c-2.9-1.4-5.7-2.9-1-4.5c-0.7-1-1.7-1.5-2.5-2.3c-0.9-1-1.7-2.1-2.3-3.3c-0.5-1.5-0.6-3.1-1.2-4.6c-0.9-2.5-3.2-4.3-5.6-5.4
		c-0.9,0-1.9,0.2-2.8,0.2c0,0.2-0.2,0.4-0.4,0.4c-1,0.8-2.3,1.4-3.1,2.3c-0.8,1.2-1.7,2.4-2.9,3.2c-0.8,0.3-1.8-0.1-2.6-0.1
		c-0.6,0.6-1.3,1-2.2,1.1c-0.7,0-1-0.5-0.9-1.1c-0.1-2.2,2.6-3.1,4-4.4c6.9-5.6,14.9-9.6,22.2-14.6c2.5-1.7,4.9-3.5,6.9-5.7
		c0.4-0.4,0.8-0.9,1.4-1.1c1.5-0.4,1.3,1.7,2.1,2.4c0.1,0.1,0.3,0.2,0.5,0.3c1.7-1,1-3.6,1.2-5.2c0-1.7-0.2-3.4,0.2-5.1
		c1.2-3.1,3.8-5.5,5.4-8.4c1.1-1.9,1.4-4.3,1.3-6.5c-0.6-2.1-0.4-4.3,0.9-6.2c0.8-1.6,2.1-3,2-4.9c-0.7-4.5,2.3-6.6,5.5-9
		c0-0.2,0.1-0.4,0.3-0.5c0.3-0.3,0.7-0.7,0.8-1.1c-0.7-1.1-2.3-0.9-3.1-1.9c-1.2-2.2,6.9-10,9.1-10.5c2.6-0.9,2.9-2.7,3.4-5.1
		c1.2-3.8,1.7-7.8,3.1-11.5c1.1-2.9,3.3-5.2,4.5-8c0.3-0.7,0.6-1.4,0.7-2.1c0-0.1,0-0.3,0-0.4c-0.1,0-0.1-0.1-0.2-0.2
		c-0.6-7.3,0.6-14.9,1.3-22.2c0.5-2.9,2-5.6,2.8-8.4c1.1-3.2,1.6-6.6,2.5-9.8c1.3-5.3,2.9-11,2.1-16.5c-0.3-2.3-1.1-4.8-0.4-7.1
		c0.3-0.9,1.4-1.4,1.5-2.4c-0.3-2.2-1.2-4.3-1.3-6.6c-0.3-4.5-0.4-9.1-0.5-13.6c0.1-3.7-0.4-7.5-0.1-11.2c0.2-2.4,1.4-4.6,1.3-7
		c0-2-0.6-3.8-1-5.7c-0.3-1.9-0.2-4-0.6-5.9c-0.3-2.5-1.8-4.6-1.7-7.2c0.1-3.3,1.8-6.3,2-9.6c0.2-3.6-0.6-7.2-0.5-10.8
		c-0.2-1.1-0.2-2.3-0.8-3.3c-0.4-0.5-0.8-1.1-0.9-1.7c-0.1,0-0.1-0.1-0.2-0.2c-0.8-1.5-2.3-2.9-2.3-4.7c-0.2-1.5,0.9-2,2.1-2.4
		c0.5-0.2,0.6-0.7,0.6-1.2c0.3-0.7,0.3-1.5,0.3-2.3c-0.1-0.8-1-1.1-1.5-1.6c-0.7-0.7-0.7-1.9,0.3-2.4c-0.7-3.1-2.1-5.9-3.2-8.9
		c-1.2-2.8-2.1-5.8-4.2-8.1c-1.3-1.5-2.9-2.8-4.3-4.3c-1.7-1.8-3.5-3.7-5.9-4.6c-3.5-0.9-7.2,0-10.5-1.8c-1.7-0.8-3.2-2-4.8-3
		c-0.5-0.4-1.2-0.9-1.1-1.6c0.6-1.5,2-2.8,3.4-3.5c2.4-0.8,5-0.6,7.5-0.4c0,0,0,0,0,0c-2.5-2.7-3.7-6.1-5.2-9.3
		c-5.3,1-5.7-4.8-6.9-8.4c-0.4-1.1-0.7-2.7-1.8-3.2c-0.1,0.2-0.3,0.3-0.5,0.2c-2.9-0.5-5.9-0.7-8.7-1.5c-2.6-0.3-5-1-6.9-2.9
		c-3.5-1.8-5.5-2.5-2.6-6.4c0.3-0.5,0.3-1,0.3-1.5c-0.3-2.9-1.3-5.6-2.2-8.4c-1-3-2-6.1-3.5-8.9c-0.6-1.4-1.7-2.5-3-3.2
		c-3.5-1.4-7.4-2-11.1-1.2c-1.5,0-5,2.9-5.8,0.9c-1.2-2.8,1.1-5.9,0.2-8.7c-2.4-3.8-5.3-7.2-7.5-11.1c-0.5-1.2-1.3-2.4-1.6-3.7
		c-0.1-0.3,0.2-0.6,0.4-0.8c1.8-2.2,4-4.3,4-7.4c0.1-1.7,0.7-4.2-1-5.2c-2.7-0.7-5.1-2.3-7.4-3.7c-1.3-0.6-2.7-1.2-3.9-2.1
		c-3.1-2.1-1.2-5.2-1.4-8c-1.3-2.1-3.1-3.7-5.4-4.5c-2-0.7-4.7-0.6-6-2.6c-0.6-0.8-0.5-2-0.5-3c0-0.7,0.1-1.5,0.7-2
		c0.8-0.8,1.7-1.5,2.7-2c1.2-1.4,2.1-3,3.7-4c2.5-1.7,4.9-3.3,7.6-4.7c1.7-1.7,3.7-3,5.6-4.4c1.1-0.9,2.1-1.8,3.3-2.5
		c1.3-0.8,2.7-1.5,3.9-2.4c1.5-1.1,2.6-2.6,4.1-3.7c3.3-2.1,7.2-3.6,9.5-6.9c0,0-0.1,0-0.1,0c-2.9,0.2-3.8,3.4-6.1,4.5
		c-1.4,0.8-3,1.1-4.5,1.5c-2,0.6-3.5,2.1-5.1,3.3c-1.1,1-2.5,1.7-3.5,2.8c-0.5,1.4-1.6,2.3-2.6,3.3c-1.4,1.2-2.7,2.6-4.5,3.2
		c-1.4,0.6-3.1,0.7-4.4,1.6c-1.2,1.3-3,1.9-4.5,2.8c-2.4,1.3-4.6,2.9-6.7,4.7c-2.5,2.7-5.1,5.8-5.8,9.5c-0.1,0.6-0.4,1.2-0.5,1.8
		c0,0.8,0.1,1.7,0.2,2.5c0,0.5,0.2,1-0.1,1.4c-0.5,0.6-1.4,0.6-2,0.4c-0.7,0.8-0.8,2-1.1,2.9c-0.1,0.4-0.3,0.9-0.7,0.8
		c-0.4,0.2-1,0.2-1.4,0.2c-0.4,0-0.7-0.2-1-0.4c-1.6-1.2-2.9-2.8-4.4-4.1c-0.4,0.8-0.8,1.6-1.5,2.1c-0.6,0.2-1.2-0.1-1.8-0.2
		c-0.4-0.1-0.8-0.1-1.2,0c-0.9-0.1-1.7-0.3-2.6-0.4c-2-0.1-3.9-0.7-5.9-1.1c-2.2-1-3.2-3.6-5.4-4.7c-0.7-0.4-1.4-0.7-2.2-0.8
		c-0.4,0.2-0.8,0.4-1.3,0.5c-0.7,0.1-1.4-0.2-2-0.7c-0.8-0.7-1.9-0.8-2.8-1.2c-1.3-0.6-2.5-1.6-3.9-1.6c-1.5,0-2.4,1.4-3.6,2
		c-1.3,0.8-3.2,0.9-4.1-0.5c-3.2,0.4-6.7,0.5-9.7-0.9c-1.7-0.9-3.6-2.6-5.6-1.9c-1,0.2-1.5,1.2-2.4,1.6c-0.7,0.2-1.5,0.2-1.9,1
		c-0.7,1-2.4,0.4-3.1-0.4c-0.7-0.8-0.4-1.9-0.4-2.9c0-0.8,0-1.5-0.3-2.2c-0.5-0.5-1.2-0.9-2-0.7c-1.6,0.5-4.6,0.5-4.5-1.8
		c-0.1-1.3,0.7-2.7,0.3-4c-0.1-0.4-0.3-0.8-0.6-1.2c-0.3-0.3-0.7-0.2-1.1-0.4c-0.3-0.1-0.6-0.3-0.7-0.6c-0.5-1.9-3.5-0.7-5-1.1
		c-2.6,0.1-5.8-0.7-8.2,0.5c-0.2,0.3-0.2,0.6-0.4,0.9c-0.2,0.4-0.6,0.4-1,0.5c-1,0.2-2-0.2-3-0.1c-0.5,0.2-0.7,0.9-1.1,1.2
		c0,0,0,0,0,0c0.1,0.8-1,0.8-1.5,0.8c-1.2,0-1.6-1.1-1.3-2.1c-0.1-0.7-0.2-1.5-0.3-2.2c-0.4-1.1-1-2.3-1.9-3
		c-2.4-1.3-5.2-1.9-7.9-2.4c-1.1-0.2-2.3,0.1-3.4-0.4c-0.9-0.5-1.8-1.3-1.7-2.5c-0.1-0.8,0.2-1.5,0.2-2.2c-0.8-1.2-1.9-2.1-2.8-3.2
		c-1.2-1.6-3-2.7-4.9-3.1c-1-0.1-2.1,0-2.9-0.6c-0.8-0.5-1-1.4-1.4-2.2c-0.5-1.1-1.3-2.1-2.2-3c-1.7-1.6-3.6-2.9-5.6-4
		c-1-0.6-1.7-1.5-2.6-2.2c-0.3-0.2-0.6-0.2-0.9,0c-0.3,0.1-0.5,0.3-0.5,0.6c-0.2,0.8-0.2,2.2-1.3,2.2c-1.6-0.3-3-1.3-4.1-2.5
		c-1-1.5-0.9-3.6-2.5-4.6c-0.9-0.5-1.8,0.1-2.7,0.4c-1.1,0.4-2.3,0.6-3.4,1.2c-0.3,0.5-0.5,1.1-1,1.4c-0.6,0.3-1.4,0.3-2-0.1
		c-0.5-0.4-1-0.8-1.7-0.6c-0.7,0.6-1.8,0.7-2.5,0.1c-0.6-0.5-0.8-1.2-1.2-1.8c-0.9-1.3-2.1-2.2-3.2-3.3c-1.8-1.5-3.4-3.5-5.7-4.1
		c-1.2-0.2-2.4-0.1-3.6,0c0,0,0,0,0,0c-0.1,0.1-0.3,0.1-0.5,0c-0.2,0-0.5,0-0.7,0c-0.3,0-0.5-0.2-0.5-0.5c0-0.6,0.9-0.5,1.3-0.5
		c0,0,0,0,0,0c0.9-0.9,3.3-1.8,3.8-2.2c7.4-4.2,15.7-6.5,23.9-8.4c34.2-7.4,68.8,1.7,103.1,3.4c5.7,0,11.5-0.1,17.2-0.8
		c0.1-0.1,0.2-0.2,0.3-0.2c9.7-1.9,19.5-2.9,29.2-4.5c28.4-5.4,57.5-8,86.2-4.3c10.5,1.7,21.2,2.8,31.6,5.1c14,3.3,28,6.7,41.6,11.1
		c17.5,5.5,35.2,10.6,52.1,18c11.2,4.2,22.6,7.6,33.8,11.7c9.4,3.2,18.4,7.5,27.8,10.6c7.1,2.3,14.7,3,21.9,4.8
		c11.2,3.2,22.4,6.4,33.4,10.4c14.7,5.7,28.9,12.4,42.8,19.8c7.9,4.4,15.4,9.5,22.9,14.4c14.9,10.4,29.6,21.7,40.7,36.3
		c6.3,8.5,10.9,18.1,15.3,27.7c0.1-0.1,0.2-0.1,0.4-0.2c15-20.6,35.1-36.9,52.1-55.7c4.9-6.1,9.3-12.6,14.3-18.7
		c9-10.6,19.1-20.1,28.9-29.9c8.6-8,17.7-15.4,27-22.6c3-3.6,6.7-6.7,10.7-8.9c0.7-0.3,1.4-0.7,2.2-1c3.6-2.6,7.2-5.2,10.8-7.7
		c2.1-2.1,5.6-2.6,7.9-0.7c18-7.8,36.4-14.9,54.9-21.5c27.1-7.1,54.9-11.5,82.5-16.5c65.8-11.6,133.4-6.8,198.8,4.8
		c46.6,10,91.4,26.5,136.7,41.1c83.8,25.8,161.2,67.2,239,106.9c58.3,28.6,117.4,57.8,168.6,98.2c1.4,1.1,2.7,2.2,4,3.3
		c0.6-0.4,1.1-0.8,1.6-1.2c3.9-3.2,8.6-5.2,13.4-6.9c5.4-1.9,10.8-3.8,16.3-5.3c15-4.6,30.5-3.8,45.9-4.1c8.8-0.2,17.6-1.3,26.4-1.7
		c9.4-0.5,18.9,0,28.3,0.3c13.6,0.5,27.1,2.7,40.4,5.9c10.2,1.9,20.3,4.3,30.3,7.3c4.7,1.2,9.6,1.8,14.4,2.6c3,0.3,6-0.2,8.8,1
		c0.2,0.1,0.4,0.2,0.5,0.3C2250.1,427.8,2250.3,427.7,2250.5,427.7z" />
		<path d="M2705.9,1310.7c1.3,10.8,1.3,21.8,0.5,32.7c-0.5,3.3-1.1,6.2-1.3,9.4c0.1,3.9,1.4,7.6,1.6,11.5
		c0,0.8-0.1,1.6-0.3,2.4c0.4,2.5,0.9,6.7-2.5,6c-0.1,0-0.1,0-0.2-0.1c-0.4,0-0.8,0-1.2,0c-2.7,0.4-5.4,1.1-7.8,2.3
		c-2.4,1.7-3.3,4.8-5.9,6.4c-2.3,1.8-5.3,1.4-8,1.3c-1.9,0.6-3.7,1.7-5.3,2.8c-1.9,2-2.7,4.9-4.2,7.2c-2.1,4.4-2.9,9.3-4.5,13.9
		c-2.1,3.4-6.3,5.5-7,9.8c-0.4,1.6,0.1,3.4-0.7,5c-4.9,8-14.8,8.6-22.6,12.2c-1.9,0.9-3.8,1.8-5.4,3.2c-0.3,0.7-1.3,0.9-1.8,1.4
		c-1.4,1.2-2.9,2.5-4.3,3.7c-1.5,1.5-2.7,3.3-4.4,4.5c-0.5,0.5-0.3,1.3-0.3,1.9c0.2,1.6,0.3,3.2,0.2,4.9c-0.1,0.6-0.8,0.8-1.2,1.2
		c-2.1,1.9-4.5,3.5-6.9,5c-0.7,0.4-1.4,1.2-2.2,0.8c-3.2-1-5.7-3.6-8.9-4.5c-1.4-0.2-2.7-1.2-3.3-2.4c-0.3-1.4,0.5-2.9,0.3-4.3
		c-0.2-0.7-0.3-1.5-0.6-2.2c-1-1.1-0.9-2.1,0.3-3c-0.4-1.2-0.5-2.4-0.8-3.6c-1.3-1.8-1.1-1.6,0.2-3.3c1-1,0.9-2.6,1-3.9
		c0-2.1-0.2-4.2-0.5-6.2c-0.2-2.2-0.4-4.4-0.4-6.6c-0.1,0.1-0.3,0-0.4-0.1c-0.7-0.7-1.9-1.4-1.5-2.6c-1-0.1-1.6-1.1-1.3-2
		c-1-0.1-1.8-1.1-1.6-2.1c0-0.3,0.1-0.8,0.1-1.1c-0.3-1-0.4-2.1-0.4-3.2c-0.4-3-0.9-6-2.5-8.5c-2.4-3.3-5.7-5.8-8.6-8.5
		c-4.4-5.6-4-13-5.1-19.7c-0.7-4.2,0.4-8.5,0.5-12.7c-1-4.4-3-8.6-5.8-12.1c-0.8-1-1.8-2-1.4-3.4c0.4-1.2,0.3-2.3,0.2-3.5
		c-2.9-6.9-6.6-13.4-9.5-20.3c-0.6-0.7-1-1.7-1.8-2.2c-0.9-0.3-2-0.6-2.9-0.3c-0.3,0.1-0.6,0.1-0.9,0.4c0,0,0,0,0,0
		c-0.7,1.3-1.2,3.2-3,3c-1.3-0.5-2.4-2.2-3.9-1.8c-0.7,0.5-1.5,1.5-2.5,1.2c-0.5-0.3-0.6-1-0.8-1.5c-1-2.5-0.5-5.2-1-7.7
		c-0.2-0.8-0.5-1.6-1.1-2.1c-0.5-0.4-1-0.6-1.3-1.1c-0.9-1.2-0.5-2.8-0.5-4.2c0-4.5,0.3-9.4-1.1-13.7c-0.3-0.2-0.8-0.1-1-0.2
		c-0.7-0.1-1.3-0.7-1.5-1.4c-0.9-3.7-1.2-7.5-1.7-11.2c-0.2-2.4-0.4-4.9-0.9-7.3c-0.2-1-0.6-1.9-1.4-2.6c-0.3-0.3-0.8-0.4-1.2-0.7
		c-0.7-0.1-1.8-0.8-2.2-0.8c-1.6-0.4-3.2-0.6-4.7-1.1c-1,0-2.1-0.4-2.9,0.2c-1.1,1.4-2.5,2.6-4.2,3c-0.8,0.2-1.6-0.3-2.4-0.2
		c-1.1,0.9-2,2.1-2.9,3.2c-1,1.3-1.9,2.6-3.1,3.7c-0.5,0.6-1.3,1.1-1.2,1.9c0.2,0.7,1,1,1.6,1.5c1.4,0.8,2.7,2,2.9,3.6
		c0.5,7-7.5,10.5-13.2,11.9c-1.4,0.7-2.9,1.1-4.5,0.9c-3.8,0.1-6.2-0.3-8.1-3.8c-0.4-0.5-1.1-0.7-1.6-1.1c-0.6-0.6-0.5-1.5-0.5-2.2
		c-0.8-0.9-1.1-2-1.1-3.2c-0.5-0.2-1.1-0.2-1.6-0.2c-1.3,0.1-2.6-0.4-3.9-0.3c-1.1,0.2-1.7,0.9-2.5,1.6c-1.5,1.2-2.9,2.6-4.7,3.2
		c-1,0.4-2.1,0-3.1,0c-0.2,0.1-0.4,0.2-0.6,0.4c-1.1,0.6-2.3-0.3-3.3-0.7c-1-0.4-2.1-0.9-3-1.4c-1.4-0.7-2.9-1.1-4.4-1.4
		c-0.9-0.2-1.8,0.2-2.6-0.3c-0.6-0.4-1.1-0.9-1.7-1.3c-0.4-0.2-0.8-0.4-1.1-0.7c-0.6-0.7-0.5-1.7-0.7-2.6c-0.1-1.4-0.5-2.7-1.2-4
		c-1.7-1-1-2.7,0.1-3.8c0.4-2.4-0.7-6,2.5-6.9c0.5-0.2,1-0.3,1.3-0.7c0.1-0.1,0.2-0.3,0.2-0.5c-0.4-2.1,1.2-3.8,1.4-5.9
		c0.2-1,0.1-1.9-0.4-2.8c-0.8-3.2-2.6-6.2-2.9-9.5c-0.4-1.2,3.7-10.5,4.5-6.9c1.1,2.6,1.2,5.5,1.6,8.2c0.6,2.8,0.8,4.3,1.1,7
		c0.4,0.8,0.7,1.8,1.3,2.5c1.3,1.4,3.2,2,5,2.7c3.6,1.7,7.8,2.5,11,4.7c0.4,0.2,0.7-0.2,1-0.3c1.9-1.8,4.2-3,6.6-4.1
		c1.7-0.8,3.3-1.7,4.9-2.7c1.6-1,3-2.2,4.9-2.6c1.7-0.4,3.2,0.6,4.7,1.1c1.1,0.2,2.5,0,3.4-0.8c5.4-5.1,9.3-11.7,12.7-18.2
		c2.2-4.7,3.6-9.8,6.1-14.4c0.7-1,1.9-1.5,2.6-2.4c0.5-1.2,0.7-2.8,0.3-4c-0.6-1-2.5-1.6-1.7-3.1c1-3.4,1.7-6.9,1.8-10.4
		c0.1-3.2-0.9-6.3-1.1-9.5c-1.2-4.4-3-8.7-5.1-12.7c-3.1-5.5-6.5-10.9-9.7-16.5c-1.6-2.8-2.7-5.9-4.5-8.5c-1.5-2.5-4.3-4.5-4.6-7.6
		c-0.5-1.6-0.5-2.7-0.3-3.3c0,0,0,0,0,0c0-1.8-0.1-3.6-0.9-5.1c-2.7-4.4-7.8-6-12.1-8.2c-2.3-1.1-4.4-2.6-6.1-4.5
		c-1.3-1.7-1.6-4-2.8-5.8c-3.7-7.2-12.1-9.2-18.1-13.8c-2.2-1.7-4.4-3.4-5.9-5.8c-0.8-1.5-1.7-2.9-2.9-4.1c-2-0.9-4.2-1.3-6.4-1.1
		c-1.9-0.1-3.5-1.4-4.9-2.6c-1.6-1.4-3.2-2.5-4.9-3.7c-1.6-1.2-3.4-2.1-5.3-2.7c-1-0.4-2.8-0.5-3-1.9c-0.3-1.3,0.4-2.5,1.3-3.4
		c0.4-0.6,1-1.3,0.6-2c-0.5-1-1.4-1.5-2.2-2.1c-0.5-0.5-0.7-1.2-0.5-1.9c0.2-0.4,0.2-0.8,0.1-1.3c0,0,0,0,0,0
		c-1.5-4.3-4.5-7.8-7.8-10.9c-0.7-0.5-1.5-0.9-2.3-1.1c-1-0.2-2.1-0.4-2.6-1.5c-1.9-7.1-7.6-11.9-13.1-16.4
		c-5.8-5.1-11.9-9.6-18.2-14.1c-3.4-2.6-6.3-5.7-9.3-8.7c-1.6-1.9-3-3.9-4.9-5.5c-5.1-4.1-10.8-7.4-16.7-10.4
		c-3.9-1.8-6-5.6-8.6-8.7c-3.7-3-8-5.1-12.1-7.6c-4-3-8.7-5-12.6-8.1c-2.8-2.4-5.9-4.4-9-6.5c-5.6-4-11-8.2-16.3-12.6
		c-10.1-7.7-20.7-14.5-31.4-21.4c-10.9-7.2-21.3-14.9-32.2-22c-5-3.3-9.7-7.2-15.1-9.8c-0.1,0-0.1,0-0.2,0c-0.9-0.4-1.7-0.8-2.6-1.2
		c-0.4-0.1-0.8-0.3-1.2-0.4c-0.3,0.2-0.7-0.1-0.7-0.5c-3.3-1.6-6.6-3.2-9.9-4.8c-3.9-2.3-7.5-5.1-11.5-7.2
		c-7.3-4.1-14.4-8.5-21.7-12.5c-3.4-2-6.7-4.5-10.3-6c-0.1,0-0.2-0.1-0.2-0.1c0,0,0,0-0.1,0c-3.5-0.8-7.2-1.1-10.7-1.5
		c-1.1-1.4-1.8-3.1-2.7-4.6c-5.1,0-10.4-0.5-15.4,0.2c0,0,0,0,0,0s0,0,0.1,0c-0.1,0-0.2,0-0.3,0c-1.2,1.5-2.3,3-3.4,4.6
		c-1.1,1.7-2.5,3.3-3.6,5.1c-0.4,0.5-0.8,1.8-1.6,1.4c-0.5-0.4-1.3-0.6-1.5-1.2c-0.1-0.1-0.1-0.1-0.1-0.2c0,0,0-0.1,0-0.1
		c0-0.1,0.1-0.2,0.1-0.2c1.3-2.7,3.5-5,5-7.6c0.4-0.5,1.8-3.2,2.9-4.3c-2.6-1.9-5.2-3.9-8.1-5.5c-3.3-2.2-7.1-3.8-9.9-6.6
		c-0.3-0.5,0.2-1,0.4-1.4c1-1.4,2.2-2.6,3.1-4.1c-4.8-2.9-9.2-6.6-14.5-8.5c-0.8,1.4-1.8,2.6-2.8,3.9c-0.5,0.6-1.2,1.5-2.1,0.9
		c-2.9-1.8-5.9-3.6-8.8-5.4c-3.9-2.1-7.5-4.6-11.2-7c-0.6-0.4-1.3-0.8-1.8-1.4c-0.6-1.2,0.5-2.5,0.8-3.6c-3.6-2.3-7.3-5-11.4-6.3
		c-2.3,5.4-2,5.1-4.9,4.8c-0.7-0.1-1.7-0.1-2.9-0.1c0.2,1.1-0.4,3.2-0.3,3.9c0,2.3-0.8,4.5-0.9,6.8c3.1,3.9,5.8,8,8.7,12.1
		c1.2,1.7,2.6,3.2,3.8,4.9c1.9,1.1,3.8,2.2,5.7,3.2c2.6,1.9,5.1,4,7.9,5.5c10.7,6.5,21.4,13,31.9,19.8c4.8,3.1,9.7,5.8,14.4,9
		c0.3,0.3,0.8,0.5,1,0.8c1.2-0.1,2.3-0.1,3.5-0.2c1-0.2,1.1,0.7,1.2,1.4c-0.1,0.8,0.3,1.8-0.1,2.5c-0.4,0.3-0.9,0.3-1.4,0.3
		c-0.2,0-0.3,0-0.5,0c-0.3,0-0.5,0-0.8,0c0,0-0.1,0-0.1,0c-0.3-0.2-0.5-0.4-0.8-0.6c-0.4-0.3-0.9-0.6-1.3-0.9
		c-0.2-0.1-0.4-0.3-0.6-0.4c-0.2-0.1-0.4-0.3-0.6-0.4c-0.1-0.1-0.2-0.1-0.3-0.2c-0.9-0.5-1.7-1.1-2.6-1.6c-0.9-0.6-1.8-1.2-2.7-1.7
		c0,0,0,0,0,0c0,0,0,0,0,0c-0.9-0.6-1.8-1.1-2.7-1.7c0,0,0,0,0,0c-0.1,0-0.1-0.1-0.2-0.1c0,0,0,0,0,0c-0.8-0.5-1.7-1.1-2.6-1.6
		c0,0,0,0,0,0c-1.3-0.7-2.6-1.5-3.9-2.2c-0.6-0.4-1.3-0.8-1.9-1.1c-0.6-0.4-1.2-0.7-1.8-1.1c0,0,0,0,0,0c0,0,0,0,0,0
		c-0.3-0.2-0.7-0.4-1-0.6c-0.4-0.2-0.7-0.5-1.1-0.7c-0.4-0.2-0.8-0.5-1.1-0.7c-0.1-0.1-0.3-0.1-0.4-0.2c-0.2-0.1-0.5-0.3-0.7-0.4
		c0,0,0,0,0,0c0,0,0,0,0,0c0,0,0,0,0,0c-0.1,0-0.2-0.1-0.2-0.1c-0.2-0.1-0.4-0.2-0.6-0.3c-0.7-0.4-1.3-0.8-2-1.2
		c-7.4-4.3-15.1-8.2-22.3-12.7c-5.5-3.1-10.6-6.9-16.1-10.1c-0.1,0-0.2,0-0.4-0.1c-0.6-0.6-1.8-0.4-2.1-1.3
		c-0.8-1.9-1.7-3.9-2.6-5.8c-1.3-2.4-2.4-5-3.7-7.5c-0.6-2.5-1-5-1.1-7.6c-0.2-2.7-0.1-5.5,0-8.2c0-1.3,0.1-2.5,0.3-3.8
		c0-0.3,0-0.5,0-0.8c0.7-9.1,9.4-14.5,15.1-20.5c9.8-9.4,20.7-17.5,31.4-25.7c10.5-7.3,20.2-15.7,29.2-24.7c3.1-3.3,6.5-6.5,9-10.2
		c1.9-2.7,4.3-5.1,5.8-8c1.3-2.3,2.5-4.7,4-6.9c0.3-0.4,0.5-0.9,0.7-1.3c0,0,0-0.1,0-0.1c1.6-3.4,3.8-6.6,5.4-10
		c4.7-8.5,7.7-17.8,11-26.9c3.6-9.3,5.4-19.1,7.3-28.9c0.8-5,2.1-9.9,3.1-14.8c0-0.5-0.1-0.9-0.1-1.4c0-5.1,1.3-10,2-15.1
		c0-0.1,0-0.1,0-0.2c0-0.4,0.1-0.7,0.2-1.1c0.1-0.8,0.1-1.7,0.2-2.6c0.3-4.7-0.4-9.4-0.4-14c0.1-5.5-0.1-11.1-0.2-16.5
		c0-7.4-1.7-14.8-1.4-22.1c0.6-5.5,3.5-10.4,6-15.3c1.9-3.5,3.4-7.1,5.5-10.5c2-2.8,3.2-6.1,4.7-9.2c1.6-2.8,2.8-5.8,4.1-8.7
		c0.4-0.7,1-2.5,1.6-3.3c1-3.9,3.1-7.5,4.7-11.2c4.7-10.6,9.7-21.3,17.4-30.1c0.5-0.5,1.1-1,1.7-1.5c0.1-0.5,0.2-1,0.4-1.5
		c0.6-1.1,2-0.9,3-1c0.1,0,0.2,0,0.3,0c0.8-0.5,1.5-0.9,2.3-1.3c0.7-0.8,1.6-1.9,2.8-2c0.5,0.1,0.5,0.9,0.9,0.9
		c2.8-1.5,4.7-4.1,7.1-6.1c3-2.7,5.7-5.8,8.4-8.8c1.8-1.7,3.5-3.5,5.2-5.4c0.8-1.6,1.8-3.2,2.6-4.8c1.1-2,1.9-4.3,2.8-6.4
		c0.7-1.6,1.7-3,2.1-4.7c0.7-1.8,1.5-0.7,2.7-0.1c1.7,0.1,3.5-0.7,5.1-1.1c0.4,0,1-0.4,1.5-0.4c0,0,0,0-0.1-0.1c0,0,0,0,0,0
		c0,0,0,0,0,0c-0.2-0.3-0.1-0.8,0.3-0.9c0.2,0,0.3,0,0.5,0c1.4,0.1,2.7,0.1,4.1,0.3c8,0.4,10.8,2.7,15.2,9.2
		c4.6,7.7,7.2,16.5,11.7,24.3c5.3,9.8,12,18.7,18,28.1c5.4,8.4,10,17.4,15.3,26c3.7,6,7.3,12,11.6,17.6c3.8,4.7,8,9,11.9,13.6
		c4,4.7,7.7,9.7,11.5,14.6c6.8,8.6,11.8,18.3,16.2,28.3c3.7,7.7,7.2,15.6,7.9,24.2c0.9,7.2,0.9,14.4,1,21.6
		c0.1,6.6,0.1,13.1-1.2,19.6c-1.3,6.9-3.4,13.6-5.2,20.4c-1.4,6-2.2,12.1-4.8,17.7c-4.6,10.1-9.8,20-12.6,30.8
		c-0.5,1.7-0.9,3.4-1.4,5.1c17.3,18.1,33.5,37.3,50,56.3c8.7,10.5,17.2,21.1,26.2,31.1c4.7,5.3,8.9,10.9,13.8,15.9
		c2.2,2.2,4.4,4.4,6.7,6.5c8.1,4.6,15.7,10.4,23,16.2c8.1,7.4,15.6,15.4,24.2,22.2c11.8,9.7,24.1,19,35.5,29.3
		c9.2,8.8,17.9,18.2,26.2,27.9c14.6,18.1,27,37.8,38,58.2c6.1,11,12.4,21.6,18.1,32.7c5.5,10.6,10.9,21.4,16.9,31.6
		c4.4,7.7,9.5,15,13.9,22.7c8.3,15.2,15.3,31.2,21.2,47.5c6.2,18.1,10.5,36.9,13.7,55.7c1.9,12.5,3.1,25,4.5,37.5
		c2,16.2,3.3,32.2,7.4,47.9c1.2,4.7,2.8,9.4,3.9,14.1C2704.5,1298.2,2705.3,1304.4,2705.9,1310.7z" />
		<polygon class="st0" points="360.9,204.1 1001,28 2284,240.2 2256.2,430 2026.6,437.4 911,376 596,196 	" />
		<polygon class="st0" points="2705.9,1310.7 2858,265 2284,240.2 2251.4,439 2343.8,653.9 2276.1,799.3 	" />
	</g>
</svg>