<svg id="Nassa-Map" data-name="Nassa-Map" xmlns="http://www.w3.org/2000/svg" viewBox="0 0 2001.76 1145.77"
    preserveAspectRatio="none">
    <style type="text/css">
        .st0 {
            fill: #0075BF;
        }
    </style>
    <path class="st0"
        d="M812.54-674.08c.72.24,0,1.92-.08,2.48A93.56,93.56,0,0,1,807-658.88a50.39,50.39,0,0,1-3.2,5.76,14.18,14.18,0,0,1-2.48,3.68,24.49,24.49,0,0,1-4.4,4.24,7.43,7.43,0,0,0-1.76,2.48c-.24,1.28-1.2,1.28-2.24.72a5.56,5.56,0,0,0-2.4,1.52c-.48.4-1,.64-1.52,1a1.4,1.4,0,0,1-1.36,2.08c-.4.08-.8-.16-1.2-.08a36.69,36.69,0,0,0-5.76,4.8c-4,4.72-8.32,9.28-11.44,14.64-.48,1-.88,1.92-1.28,2.88,0,.08-.08.16-.08.24a.24.24,0,0,1,0,.32,25.28,25.28,0,0,0-1.28,3.44,1.88,1.88,0,0,0-.16.64c.08,1.52-.08,1.6-1.6,1.6a90.87,90.87,0,0,0-6.72,12.64c-1,3.28-.88,6.88-2.56,9.92a28.62,28.62,0,0,1-2.72,4.56c-.72,1.28-1.2,2.72-2,4a103.38,103.38,0,0,0-8.72,16,21.11,21.11,0,0,0-.4,5.92,118.15,118.15,0,0,0,1.44,15,154.35,154.35,0,0,1,.56,21.92,34.89,34.89,0,0,1-.24,4.08v.24c-.08.4-.08.8-.16,1.2v.08a3.2,3.2,0,0,1-.16,1.52,67.42,67.42,0,0,1-1.44,9,188.15,188.15,0,0,1-3.52,20.08c-1.12,3.44-2.56,6.72-3.68,10.16-2.8,8.48-4.64,17.36-8.4,25.52-4.16,7.84-10,14.64-15.2,21.76a41.65,41.65,0,0,0-2.24,4.16,26,26,0,0,1-1.84,2.32,3.15,3.15,0,0,1-.72.88c-.24.24-.4.48-.64.72s-.4.64-.64.64a25.33,25.33,0,0,1-2.8,2.32c-.8.72-1.68,1.44-2.4,2.16-1.6,1.28-3.44,2.24-5.12,3.36a50,50,0,0,1-4.88,3.52c-3.28,2.32-6.8,4.24-10.08,6.64-4,3-8.24,5.68-12.24,8.72-4.32,3-8.8,5.68-12.88,9-7.28,5.92-14.48,12-22.24,17.2-.48.4-1,.88-1.44,1.28,0,.24-.4.56-.56.72a2,2,0,0,1-2.16,1c-3.12-1-4.88-4-7.44-5.76a6.25,6.25,0,0,0-3.92,1.12,5.45,5.45,0,0,1-1,1c-.4.24-.88,0-1.2-.08a46,46,0,0,0-9.84-1.2c-5.36-.24-10.64.08-16,.24a26.1,26.1,0,0,1-3,.16c-.08,0-.16.08-.24.08h-1.12c-7.44-.08-14.56-2.48-21.52-4.88-4.48-1.36-9.28-1.84-13.68-3.36a2,2,0,0,1-.4-2.08c.16-.64.32-1.6,1.2-1.52,7.12,1.36,14,3.84,21,5.92a63,63,0,0,0,7.52,1.6c2.08.4,4.32,1,6.48.72a3.74,3.74,0,0,0,.8-.4c0-.08.08-.16.08-.24a16.93,16.93,0,0,0,.88-1.68,50.47,50.47,0,0,1,2.72-5,12.62,12.62,0,0,0,1.92-3.12c.32-.88.8-1.84.32-2.8a10.65,10.65,0,0,0-2.64-3,48.48,48.48,0,0,0-6.32-5.2c-2.08-1-3.76-3-5.84-3.84-1.52,1.28-1.52,3.36-2.32,5-1.44,3.2-3.36,6.16-4.64,9.44-.24.48-.64,1.6-1.36,1.12-.64-1-1.28-2.24-1.84-3.36-.08-1,0-2,0-3a46.15,46.15,0,0,1,.32-6.64v-.4a6.58,6.58,0,0,1,.16-2.16v-.16c-.72-2.48-3.12-4.08-4.88-5.84a40.82,40.82,0,0,1-4.88-5.6,41.26,41.26,0,0,0-3.92-5.12,5.18,5.18,0,0,1-.64-.72c-3.12-2.48-6-5.44-9.68-7-1.52-.56-3.36-.4-4.72-1.44a6.15,6.15,0,0,1-1.44-1.44,30.26,30.26,0,0,0-4-3.84,69.81,69.81,0,0,0-14.24-9,8.58,8.58,0,0,1-2.16-2,13.76,13.76,0,0,0-1.6-3c-2.32-3.44-5.92-5.84-9.28-8.24a75,75,0,0,0-7-2.88,15.73,15.73,0,0,1-3.2-1.28,15.09,15.09,0,0,1-2.64-1,27.15,27.15,0,0,1-4.24-3,3.17,3.17,0,0,1-1-1.84,4.36,4.36,0,0,0-.4-1.76,2.75,2.75,0,0,0-1.68-.64,7.35,7.35,0,0,1-2.56-1.12c-1.92-1.52-4.24-2.88-6.8-2.4a2.78,2.78,0,0,0,.48,2.24,9.84,9.84,0,0,0,1.52,2.48c.88,1,1.84,2.08,2.72,3.12a.74.74,0,0,1,.24.72.59.59,0,0,1-1,.32,15,15,0,0,1-4.56-5.68c-.64-1.12-.48-2.4-.8-3.6A52.05,52.05,0,0,0,464.38-471c-4-2.24-8.08-4.24-12.64-4.88a42.19,42.19,0,0,0-11-1.12c-3.44-.08-6.88,1.44-10.24.8a7.73,7.73,0,0,1-3.12-2c-2-.88-4.16-.72-6.32-.72a38.28,38.28,0,0,0-4.32.16c0,1-.24,3.12-1.68,2a7.41,7.41,0,0,1-3.12-3.68,6.47,6.47,0,0,1-.24-4.08,11.68,11.68,0,0,1,.24-2.88,2.5,2.5,0,0,1-.8-.4,45.46,45.46,0,0,1-4.4-2.24c-1.36-.88-2.56-2.16-4.08-2.8-.48,0-.8.56-1.36.64a15.58,15.58,0,0,1-4.72.56c-1.6-.08-3-.88-4.64-1-2.32-.16-3.6.16-4.72-2.24-1.2-2.24-1.92-5.52-4.88-5.84-1.84-.48-3.36-1.76-5.2-2.16-1.52-.16-3.44.8-4.56-.64-.64-.56-.56-1.52-.8-2.24a6,6,0,0,0-1.76-2,17.17,17.17,0,0,1-3.2-4,7.37,7.37,0,0,1-2.56-5.84,2.21,2.21,0,0,0-2-1.84,37.8,37.8,0,0,0-4.24-.32,8.65,8.65,0,0,1-3.44-2.16c-2.48-1.92-4.24-4.64-7-6.08a13.8,13.8,0,0,0-1.92-.8c-.72-.16-1.44-.4-2.16-.56a4.93,4.93,0,0,0-2.16-.08,15.62,15.62,0,0,0-1.84-.16c-1,.32-1.44,1.44-2.48,1.36-2.88-.4-5-3-7.76-3.28.16,1.28.32,3.36-1.44,1.6-1.28-1.2-2.56-2.64-4.32-3.12a7.82,7.82,0,0,0-3.6-.08,17.82,17.82,0,0,0-5.76,1.36c-1,.48-2.08,2.08-3.2,1-1.2-1.6-2.24-3.44-3.92-4.56-3.2-2.16-7.28-2.72-7.28-7.44a1.62,1.62,0,0,0-.32-1.2,11.55,11.55,0,0,0-2.56-1.84c-1.2-.64-2.24-1.68-3.44-2.32-1.68-.64-3.6-1.76-3.28-3.92a3.32,3.32,0,0,0-.56-2.88c-1.12-.72-2.56-.32-3.68.16a1.28,1.28,0,0,1-1.84-.8c-.08-.48,0-1-.08-1.36a7.54,7.54,0,0,0-4.24-3,3.17,3.17,0,0,1-1.84-1,11.17,11.17,0,0,1-.72-1.36c-.24-.64-.64-1.28-.32-1.92a.7.7,0,0,0-.48-.72c-4.16-1.76-15.44,5.92-15.2-2.4-.16-3-2.8-4.64-4.72-6.48-2.4-2-4.64-4.56-7.68-5.6a3.68,3.68,0,0,0-2.08,0,5.46,5.46,0,0,0-1.84,1.44c-.64.64-1.28,1.84-2.4,1.6-2.4-1-2.32-4.32-3.6-6.32-1.12-2.08-3.12-3.52-4.88-5a8.52,8.52,0,0,0-4.72-1.92c-1.68-.24-3.12.8-4.64,1.44-2.88.72-5.2-2.24-7.92-2.56.4,1.52-.24,4.64-2.24,4.48-4.16-1.2-7.76-3.68-11.52-5.6a24.69,24.69,0,0,0-7.36-3c-2.16-.64-4.56-.32-6.56-1.28-.24-.16-.56-.32-.8-.48h0c-.88-.56-1.76-1.2-2.64-1.76a12.6,12.6,0,0,0-4.16-1,2.92,2.92,0,0,0-1.2.16c-.32.16-.4.56-.64.88-1,1.44-2.8,2.56-3.84.56-.32-1-1.28-1-2.16-1.28a5.8,5.8,0,0,1-3.84-4.08c-.72-.8-2.08-.64-3.12-1a44,44,0,0,1-8.4-1.92,21.93,21.93,0,0,1-7.52-6c-1.28-2.08-1.12-4.8-1.76-7.12-8.32.08-18.24,1.2-24.64-5.2-1.28-1-2.08-2.64-3.76-3-.8.08-1.52.55-2.32.71a1.28,1.28,0,0,1-1.2-.16c-1-.79-1.28-2.64-2.72-2.88-.8.24-1.52,1-2.4,1a1.64,1.64,0,0,1-1-.64,3.72,3.72,0,0,1-.24-1.29c-1-.16-.72-1-.88-1.76a3.22,3.22,0,0,0-1.92-.24,11.18,11.18,0,0,1-4,.4,2,2,0,0,1-1.92-1,18.91,18.91,0,0,1-.4-3c-.88-1.11-2.64-.23-3.84-.32-2.48.41-2.48-1.76-3.12-3.52A9.68,9.68,0,0,0,93.1-640c-.32,0-.64-.08-.88.08-.4.32-.48.88-1,1.12s-1-.08-1.44-.4c-.4-.48-.24-1.12-.48-1.6a28.21,28.21,0,0,0-4.72-3.84c-.08,0-.08-.08-.16-.08h0a8.5,8.5,0,0,1-.88-.72l-.08-.08h0c-2.08-1.92-3.6-4.4-5.6-6.32-2.16-1-4.64-.8-7-1.36-.8-.08-2,.08-2.16-1-.4-2.72-.64-5.44-1-8.16-.24-1.28-.4-2.8-1.92-3.2-1.44-.72-3-1.6-4.64-1.36a3.79,3.79,0,0,1-2.48.16,32.38,32.38,0,0,1-3.92-1.36,6.61,6.61,0,0,1-1.36-1.68,10.38,10.38,0,0,0-.64-2.72,5.41,5.41,0,0,0-3.2-.4c-1.84.4-3.68-.32-3.68-2.4-.24-1.68-2.32-4.64.08-5.52-1.84-2.64-4.32-4.8-6.24-7.36-.56-.56-1-1.28-1.76-1.36-.4-.08-.88.32-1.36.08s-.88-.8-1.44-1q-.24-.12-.24-.24a10.34,10.34,0,0,0-2.08-1c-1.52-.4-4,.48-4.64-1.44-.08-.24,0-.32-.08-.56a6.82,6.82,0,0,0-1-2.48c-1.12-.48-1.84,1-2.64,1.6a2.25,2.25,0,0,1-1.76.08c-.24-.08-.48-.4-.72-.4a1.42,1.42,0,0,1-2.48.4,3.69,3.69,0,0,0-.72-1.2,3.77,3.77,0,0,0-1.28-.32,67,67,0,0,0-9,0c-2.32.08-5,.4-6.48,2.32-.8,1.12-1.6,2.32-2.4,3.36h0a1.75,1.75,0,0,1-.24.4c-.32.56-.48,1-.8,1.52a4.91,4.91,0,0,0-.64,4.09c.08,1,3.68,4.56,1.6,4.71-1.36,0-2.72.08-4.08.08-.72.09-1.68-.23-2.24.24.08.09.16.09.16.16,1.44.8,2.88,1.52,4.24,2.32,1.92,1.28,3.6,1,1.52,3.44a2.69,2.69,0,0,0,.72,1.2c.4.8-.08,1.36-.72,1.68a4.16,4.16,0,0,0,1,3c.48.48,1.28.72,1.52,1.36a1.09,1.09,0,0,1-.56,1,8,8,0,0,0,1.36,2.24c1.2,1.36,2.08,3,3.6,4.16.8.4,1.84-.24,2.64.32a.73.73,0,0,1,.24.56c.16,1.52.32,3,.4,4.56a28.93,28.93,0,0,0,.72,5.28h0c.16,0,.32.16.48.32,1.52,1.28,2.72,3,4.32,4.16.08.08.08.08.08.16,2-.08,4.08-.08,6.08,0,1,0,1.84,0,2.8-.08,2.56-2.08,4.8-4.56,7.76-6.08-2.16-3.2-4.16-6.56-6-9.92A28.89,28.89,0,0,1,24-662.89c0-.16,0-.32.16-.4a2.89,2.89,0,0,1,2,.16,3,3,0,0,1,1.12.56.48.48,0,0,1,.08.32,69.09,69.09,0,0,0,4.56,7.84c0,.08.08.08.08.16h0c.56.8,1,1.68,1.44,2.48a20.85,20.85,0,0,1,1.36,2.24c.16.32-.08.64-.32.88a2.12,2.12,0,0,1-.4.48,28.57,28.57,0,0,1-3.44,2.72c-1.52,1.12-2.88,2.32-4.32,3.44-.4.4-.8,1-1.36,1-2.32.24-4.64.24-6.88.32a10.75,10.75,0,0,1-1.52-.08h0a23.38,23.38,0,0,1-4.08-.32c-2.08-.32-3.28-2.88-5.52-2.48-2.8,1-4.8,3.6-7.68,4.4a5.36,5.36,0,0,1-1.6,0,5.91,5.91,0,0,0-1.68,0,2.21,2.21,0,0,0-1,1.28,28.37,28.37,0,0,0-.72,5.76c.32,1.52,1.28,3.84-1,3.84H-7c-1.84-.4-3.28-1.76-5-2.32-5.68-1.76-12.4-2.88-17.68.48v.08a44.24,44.24,0,0,0-3.84,5.68,1.76,1.76,0,0,0-.08.64,11.07,11.07,0,0,0,3.12,3.28c.72.56,1.76,1.2,1.6,2.32-.16,1.44-.64,3-.16,4.32,1.44.08,2.8-.4,4.16-.4a.93.93,0,0,1,.8.32,29.75,29.75,0,0,1,1.52,2.72c1,1.52,2.08,3,3,4.56a1.49,1.49,0,0,1,.08,1.52c-4.16,2.64-13.68,2.08-14.4,8.24-.08,1.76-.08,3.92,1.2,5.28.8.56,1.92.32,2.88.56,2.48.48,4.4,2.32,6.4,3.68,1.44,1,2.16,2.08,1.52,3.76-.4,1.28-.88,2.88-2.16,3.52-2.72.4-5.44-.08-8.16-.16-2,0-4.08-.32-6,.48-1.52,1.12-2.4,3-4.32,3.76-2.72,1-5.92.72-8.72.8-3.36-.48-7.44-.32-9.6-3.44-.72-.8-1.44-1.84-2.64-1.84a7.42,7.42,0,0,0-5.36,1.12c-1.28.8-3,1.44-4.56.72a.73.73,0,0,1-.24-.56c.16-1.36,1-2.48,1.12-3.84a2.4,2.4,0,0,0-.88-.48c-2.32-.48-4.8-.56-7.12-1a14.68,14.68,0,0,0-7.44.72,11.28,11.28,0,0,0-2.88,3c-.16.16-.24.32-.4.48s-.16.16-.24.16c-2.32,2.72-4.72,5.36-6.24,8.56a19.6,19.6,0,0,0-1.12,6.4,1,1,0,0,1,.48-.08c1.12,0,1.76,1.12,2.08,2.08A26.25,26.25,0,0,1-94.9-555c0,1.76-1.36,3-2.48,4.32-2,2.4-4.64,4.24-6.48,6.8-1.28,1.84,0,4,.72,5.76,1.68,3.36,3.36,6.88,6.32,9.2a6.53,6.53,0,0,0,2.16.48,1,1,0,0,1,.48-.08,5.4,5.4,0,0,0,1.12-.16c1.36-.4,2.32-1.44,3.52-2.16,3.76-2.08,7-5,10.48-7.44a48.4,48.4,0,0,0,5-4.88c.56-.56,1.12-1.36,1.92-1.6.88,0,.48,1,.16,1.52-.64,1-1.12,2-1.76,3-1.44,2.32-3.44,4.16-5.2,6.24-.24.8-.64,2-1.52,2.16a2.21,2.21,0,0,0-.72.08,16.56,16.56,0,0,0-5,5c-1.28,2.8-2.4,5.84-2.24,9,.72,3.2,2.88,5.92,3.28,9.2,0,1.44-1,2.72-1.36,4.08a5.28,5.28,0,0,0-.08,1.12c0,.16.08.4.08.56A9.16,9.16,0,0,0-85.3-500h0c.4-.16.8-.48,1.2-.16.4.56.16,1.44.16,2.08v.32a12.31,12.31,0,0,1,.64,1.52,1.28,1.28,0,0,1,1,.72,4,4,0,0,1-.16,1.68c.08.48.24.88.32,1.36a33.09,33.09,0,0,1,.4,10.88,14.22,14.22,0,0,0-.48,5.2c.16,1.2,1,2.24,1.12,3.44.56,2.64-.48,5.36-1.2,7.84-.48.88-.88,2.08-2,2.32A4.41,4.41,0,0,0-87.06-461c-.48,1.52-.16,3.92-2.16,4.32-1.52.08-3.12-.56-4.56.16a6.34,6.34,0,0,1-.72.32c-1.92,1.36-3.84,2.64-5.6,4.16-4.32,2.4-6.4,7-8.16,11.44a33.39,33.39,0,0,0-2.72,16,57.17,57.17,0,0,0,2.56,16.88,41.62,41.62,0,0,0,4.4,9.36c2.16,3.6,4.16,7.44,7.44,10.08a3.59,3.59,0,0,1,.88,1,.35.35,0,0,1-.08.4c.16.8-1.28,2.88-1.44,3.36-.88,1.36-1.28,3-2.4,4.08-1.44,1.2-3.52,1.28-5,2.56-1.84,2.4-.64,5.36-.88,8.16.32.4.64,1,1,1.2.4.48,1,.64,1.36,1,.48.8-.8,1.28-1.44,1.12a9.88,9.88,0,0,0-3.44-.16c-1.52.56-3.36,1.12-4.88.32-2.32-.88-3.76-3-5.84-4.24-3.84-1.92-6.8-.4-8.32,3.44-.56,1.36-1.12,3-.08,4.24.8,1.12,1.76,2.24,2.64,3.28,1.12,1.29,2.48,2.48,3,4.16.56,2.16-1.68,3.68-2.24,5.52-.16.64-.64,1.76-.08,2.24a10.46,10.46,0,0,0,4.16.24,13.83,13.83,0,0,1,7.2,1.36c2.32,1.12,3.68,3.36,5.68,5a14.46,14.46,0,0,1,3.36,4.8,4.1,4.1,0,0,1-.08,2.4,2.61,2.61,0,0,0,1.52,3.36,39.67,39.67,0,0,0,3.76,1.76,11.16,11.16,0,0,0,3.28.32c3.68.08,2,4-.16,5a8.54,8.54,0,0,1-2,.24c-1.36.32-1.76,1.76-2.64,2.64-2.48,2.32-6.16,1.92-9.28,1.52-1,0-2.32-.72-3.28-.08.08,1.28.88,2.32,1.28,3.44a12.24,12.24,0,0,1,.72,4.48,6.09,6.09,0,0,1-.24,1.68h0c0,.16-.08.32-.08.48v.48c-.24,1.84,0,3.92-1.2,5.44-1.6,2.32-3.92,2.4-6.24,1.12-1.36-.8-2.72-2-4.16-.64-.88.88-.56,2.08-.4,3.12a2.37,2.37,0,0,0,.56,1.2c1.6,1.36,4.32,1.68,5,3.92.24,1.76-1,3.6-.56,5.36a2.61,2.61,0,0,0,2.16-.64c.64-.4,1.12-.88,1.76-1.28a6,6,0,0,1,3.36-.32,43.86,43.86,0,0,1,4.48.8,2.75,2.75,0,0,0,1.12.08c.24-.08.32-.4.4-.56a21.93,21.93,0,0,1,1.2-3.68,19.78,19.78,0,0,1,5-7c1.28-.72,2.88,0,3.76,1s2.16,1.52,2.56,2.8c.24.88-.24,1.84-.08,2.8a9,9,0,0,0,3.44,4.24,33.26,33.26,0,0,0,6.4,3.52c1.44.48,3.12.64,4.32,1.6s.88,2.88,1.52,4.08c2.8,1.68,2.56,3.44,2.16,6.32a7.28,7.28,0,0,0,1.52,3,33.68,33.68,0,0,1,2.88,4.56,16,16,0,0,1,1.36,6.08c-.32,1-1.52.8-2.32.72-4.88-1.28-9.76-4.08-14.32-6.4-2.32-1.36-4.56-2.8-7.28-2.88a6.34,6.34,0,0,1-3.36-2A8,8,0,0,0-99.14-275a107.21,107.21,0,0,1-10.4-5.44,18.24,18.24,0,0,0-2.4-1.36,16.38,16.38,0,0,0-2.8-.08c-3.76-.48-9.2-1-12.72-1.68a47.63,47.63,0,0,1-10.8-4.08c-2.4-1-4.32-2.8-6.56-4.08-4.32-2.48-8.72-4.56-13-7.12-1.12-.8-2-2.08-3.2-2.88-1.76,0-3.44.56-5.12.08a31.71,31.71,0,0,1-9.6-4c-2.64-1.76-4.88-4.24-7.92-5.44-1.52-.8-3,.08-4.72-.08a6.6,6.6,0,0,1-4.24-2.72,31.17,31.17,0,0,1-2.48-6.4c-1.12-.24-2.24.4-3.36.4-.48,0-.72-.32-1-.72-1-1.44-1.68-3.28-3.28-4.08-1.36.56-2.48,1.68-4.08,1.68-3.36-.4-4.4-4.32-5.36-7.12-.56-1.6-.88-3.36-1.52-5a10.65,10.65,0,0,0-3.28-4c-2.8-1.68-6.24-1.12-9.2-2.4-2.56-1.6-4.56-4-7.84-3.84-3.28-.32-6.72-.64-9.76-2-1.44-.72-2.24-2.32-3.68-3-2.08-.72-4.24-1-6.32-1.84a7.91,7.91,0,0,1-2.32-2,6.54,6.54,0,0,1-2.08.48.17.17,0,0,0-.16.16,4.92,4.92,0,0,1-.56,2.8,2.24,2.24,0,0,0,1.12,3c.48.24,1.28.48,1,1.2a4,4,0,0,1-2.08,1.52c-.4.16-1,.08-1.36.24a.8.8,0,0,0-.32.4,1,1,0,0,1-1.2.64c-.56-.16-.48-.88-.72-1.28-.88-.16-2.08-.48-2.4-1.44-1.92-3-4.72-1.36-7.36-.56a4.92,4.92,0,0,1-2.64-.24,5.81,5.81,0,0,0-2.24-.8c-.4,0-.8.16-1.28.16a14.91,14.91,0,0,1-4.08-1.2,25.7,25.7,0,0,1-2.4-1.68c-2.32-.72-4.88-.64-7.2-1.36-.24.16-.72.16-1,.32-1,.64-1.84,1.6-3,2.16a5.68,5.68,0,0,1-2.8.56,35.24,35.24,0,0,1-4.16.24,32.5,32.5,0,0,1-6.72-2A10.74,10.74,0,0,0-314-352c-1.76-.16-4.56,1.36-5.76-.4a16.74,16.74,0,0,1-.64-2.72c-.72-1.68-2.08-3-3-4.56-1.76-2.8-3.28-5.84-5.68-8.16-.8-1-2.16-1.2-3-2.16-.48-.72-2-1.92-.72-2.56.64-.16,1.44.16,2.16-.4-1.12-2.32-2.88-4.48-4.08-6.8a24.54,24.54,0,0,1-1.6-4c-1.12-.08-2.72-.32-3-1.68-.08-.64-.32-1.6.48-1.92,1-.16,2.16.08,3-.56h0l.16-.16.08-.08c-.32-.88-1.28-1.36-1.84-2.16a2.94,2.94,0,0,1-.32-3.12c.8-1.6,2.56-2.56,3.2-4.24.08-.24.24-.72-.08-.88h0a1.35,1.35,0,0,0-.8-.24,20.49,20.49,0,0,1-3.12.24c-1.44,0-1.12-1.44-.64-2.32s1.2-1.2,1.76-1.84a5.79,5.79,0,0,0,.88-1.52,6.78,6.78,0,0,1,.32-1.36c1-2.16,3.2.64,4.24,1.36a9.45,9.45,0,0,0-1.28-3.92,9.42,9.42,0,0,0-2-3.2,3.18,3.18,0,0,0-1.68.72,1.32,1.32,0,0,1-1,.64c-1.76,0-1-2.56-1-3.6v-.08a5.17,5.17,0,0,0-1.6-.32c.8,1.2-.48,1.68-1.52,1.6a6.82,6.82,0,0,0-2.56-.24,4.17,4.17,0,0,0,.64,2.4,3.52,3.52,0,0,1-.16,2.4c-.72,1.12-2,1.52-3.12,2.16a45.83,45.83,0,0,0-4.72,2.8c-1.2.88-2.64.24-3.92-.16a9.12,9.12,0,0,0-4.4.4c-2.72,1.44-6.16,2.32-7.92,5-.4.64-.16,1.44-.72,2a3.8,3.8,0,0,1-2.72,1c-2.24.56-4.08,2.08-6.16,3a6.82,6.82,0,0,1-2.8.64c-.56.08-.88.72-1,1.2a8.1,8.1,0,0,1-.8,2.8,1.51,1.51,0,0,1-1.12,1,5.75,5.75,0,0,1-4,.32,5,5,0,0,0-2.16-.16,22,22,0,0,1-1.36,2.32,3,3,0,0,1-3.12,1.2,3.41,3.41,0,0,1-3-2.08c-.24-.72-.48-1.52-.72-2.24-.32-.56-.64-1.12.08-1.44a2.78,2.78,0,0,1,1.92-.48,1.12,1.12,0,0,1,.24-.72,4.31,4.31,0,0,0,.4-2.24c-.08-1.12-1-1.84-1.44-2.8a3.82,3.82,0,0,1-.16-3c.4-.64,1.36-.56,2.08-.4a1.56,1.56,0,0,0,1,.08,1.56,1.56,0,0,0-.08-1c-.48-1-1.12-2.08-1.68-3a12.16,12.16,0,0,1-1.76-3.35,3.77,3.77,0,0,1,.08-3.68,3.22,3.22,0,0,0-.24-1.92,1.56,1.56,0,0,1,.08-.56h0v-.08a3.62,3.62,0,0,0-1.52-1.76c-2.32-1-5-3.12-4.64-5.92a11.78,11.78,0,0,1-.64-2.88c-.16-.8-.88-1.12-1.36-1.68a2.92,2.92,0,0,1-.32-3.36,3.56,3.56,0,0,0,1-1.68,2.07,2.07,0,0,0-.88-1c-2.24.88-4.64,2-5.92,4.08-.8,2.16-3,3.44-5,4.24a19,19,0,0,0-3.68,1.6,31.56,31.56,0,0,0-2.32,2.15,9.86,9.86,0,0,1-7.36,2.48,15.56,15.56,0,0,1-1.76.64c-.56.08-1.2,0-1.6.4a2,2,0,0,0-.64.8,3.78,3.78,0,0,1-3.2.41c-1.6-.48-2.56-2.09-4-2.8a2.54,2.54,0,0,0-1.12-.16c-.48.32-1,.48-1.28,1-.4,1.44-1.6,1.36-2.8,1.28a7.85,7.85,0,0,0-.4,2.32c0,.64-.8.8-1.36.72h-.16a.3.3,0,0,1-.48.08c-1.84-.08-3.68.08-5.44.08-3-.08-6.4.08-9.2-1.28a22.34,22.34,0,0,0-3.92-3.36c-3.6-1-8.32-1-10.48-4.48-1.2-2.24-2-4.72-3-7a7.85,7.85,0,0,0-3.36-4.48c-3.28-1.6-7.36-2.4-9.84-5.2-.88-1.2-.8-2.08.32-3.2.64-.72,1.68-.88,2.48-1.36-.4-.72-1.2-1-1.6-1.6a3.46,3.46,0,0,0-1-2.08c-.24-.16-.64-.16-.72-.48-.16-1.2.88-2.24,1.52-3.12.24-.4.72-.88.32-1.36-1.36-1.6-3.36-2.64-5.12-3.76-2.8-1.68-5.36-3.76-8.24-5.2-2.32-1.12-4.56-2.32-.8-3.6a14.35,14.35,0,0,0-2-1.84,12,12,0,0,1-1.84-2.64c-.4-1.2-.48-2.48-1-3.68a8.18,8.18,0,0,0-4.48-4.32c-.72,0-1.52.16-2.24.16a.34.34,0,0,1-.32.32,19.94,19.94,0,0,0-2.48,1.84,8.89,8.89,0,0,1-2.32,2.56c-.64.24-1.44-.08-2.08-.08a2.86,2.86,0,0,1-1.76.88.69.69,0,0,1-.72-.88c-.08-1.76,2.08-2.48,3.2-3.52,5.52-4.48,11.92-7.68,17.76-11.68a30.45,30.45,0,0,0,5.52-4.56,3.05,3.05,0,0,1,1.12-.88c1.2-.32,1,1.36,1.68,1.92a1.75,1.75,0,0,0,.4.24c1.36-.8.8-2.88,1-4.16a17.44,17.44,0,0,1,.16-4.08c1-2.48,3-4.4,4.32-6.72a9.67,9.67,0,0,0,1-5.2,5.77,5.77,0,0,1,.72-5c.64-1.28,1.68-2.4,1.6-3.92-.56-3.6,1.84-5.28,4.4-7.2a.44.44,0,0,1,.24-.4,2.27,2.27,0,0,0,.64-.88c-.56-.88-1.84-.72-2.48-1.52-1-1.76,5.52-8,7.28-8.41,2.08-.71,2.32-2.15,2.72-4.08,1-3,1.36-6.24,2.48-9.2.88-2.32,2.64-4.16,3.6-6.4a6.91,6.91,0,0,0,.56-1.68v-.32c-.08,0-.08-.08-.16-.16-.48-5.84.48-11.92,1-17.76.4-2.32,1.6-4.48,2.24-6.72.88-2.56,1.28-5.28,2-7.84,1-4.24,2.32-8.8,1.68-13.2-.24-1.84-.88-3.84-.32-5.68.24-.72,1.12-1.12,1.2-1.92-.24-1.76-1-3.44-1-5.28-.24-3.6-.32-7.28-.4-10.88.08-3-.32-6-.08-9,.16-1.92,1.12-3.68,1-5.6a21.78,21.78,0,0,0-.8-4.56c-.24-1.52-.16-3.2-.48-4.72-.24-2-1.44-3.68-1.36-5.76.08-2.64,1.44-5,1.6-7.68.16-2.88-.48-5.76-.4-8.64a7.52,7.52,0,0,0-.64-2.64,3.21,3.21,0,0,1-.72-1.36c-.08,0-.08-.08-.16-.16-.64-1.2-1.84-2.32-1.84-3.76-.16-1.2.72-1.6,1.68-1.92.4-.15.48-.56.48-1a4.67,4.67,0,0,0,.24-1.84c-.08-.64-.8-.88-1.2-1.28a1.17,1.17,0,0,1,.24-1.92,58.21,58.21,0,0,0-2.56-7.12c-1-2.24-1.68-4.64-3.36-6.48-1-1.2-2.32-2.24-3.44-3.44a13.26,13.26,0,0,0-4.72-3.68c-2.8-.72-5.76,0-8.4-1.44a38.42,38.42,0,0,1-3.84-2.4c-.4-.32-1-.72-.88-1.28a5.78,5.78,0,0,1,2.72-2.8,15.13,15.13,0,0,1,6-.32h0c-2-2.16-3-4.88-4.16-7.44-4.24.8-4.56-3.84-5.52-6.72-.32-.88-.56-2.16-1.44-2.56a.29.29,0,0,1-.4.16,66.53,66.53,0,0,1-7-1.2,8.82,8.82,0,0,1-5.52-2.32c-2.8-1.44-4.4-2-2.08-5.12a2.16,2.16,0,0,0,.24-1.2,33.28,33.28,0,0,0-1.76-6.72,45.37,45.37,0,0,0-2.8-7.12,5.33,5.33,0,0,0-2.4-2.56,15.38,15.38,0,0,0-8.88-1c-1.2,0-4,2.32-4.64.72-1-2.24.88-4.72.16-7-1.92-3-4.24-5.76-6-8.88a19.44,19.44,0,0,1-1.28-3c-.08-.24.16-.48.32-.64,1.44-1.76,3.2-3.44,3.2-5.92.08-1.36.56-3.35-.8-4.15a22.8,22.8,0,0,1-5.92-3,16.84,16.84,0,0,1-3.12-1.68c-2.48-1.68-1-4.16-1.12-6.4a8.29,8.29,0,0,0-4.32-3.6c-1.6-.56-3.76-.48-4.8-2.08a4,4,0,0,1-.4-2.4,2,2,0,0,1,.56-1.6,8.41,8.41,0,0,1,2.16-1.6,14.09,14.09,0,0,1,3-3.2,59.15,59.15,0,0,1,6.08-3.76,37.68,37.68,0,0,1,4.48-3.52,20.83,20.83,0,0,1,2.64-2c1-.64,2.16-1.2,3.12-1.92,1.2-.88,2.08-2.08,3.28-3,2.64-1.68,5.76-2.88,7.6-5.52h-.08c-2.32.16-3,2.72-4.88,3.6a14.66,14.66,0,0,1-3.6,1.2c-1.6.48-2.8,1.68-4.08,2.64-.88.8-2,1.36-2.8,2.24a7.45,7.45,0,0,1-2.08,2.64,11.39,11.39,0,0,1-3.6,2.56c-1.12.48-2.48.56-3.52,1.28-1,1-2.4,1.52-3.6,2.24A30.8,30.8,0,0,0-556-813c-2,2.16-4.08,4.64-4.64,7.6-.08.48-.32,1-.4,1.44a16.84,16.84,0,0,0,.16,2c0,.4.16.8-.08,1.12a1.5,1.5,0,0,1-1.6.32,6.33,6.33,0,0,0-.88,2.32c-.08.32-.24.72-.56.64a2.72,2.72,0,0,1-1.12.16,1.42,1.42,0,0,1-.8-.32c-1.28-1-2.32-2.24-3.52-3.28a4.3,4.3,0,0,1-1.2,1.68,3,3,0,0,1-1.44-.16,2,2,0,0,0-1,0c-.72-.08-1.36-.24-2.08-.32a32.61,32.61,0,0,1-4.72-.88c-1.76-.8-2.56-2.88-4.32-3.76a4.67,4.67,0,0,0-1.76-.64,4,4,0,0,1-1,.4,2.09,2.09,0,0,1-1.6-.56,7.9,7.9,0,0,0-2.24-1c-1-.48-2-1.28-3.12-1.28s-1.92,1.12-2.88,1.6a2.37,2.37,0,0,1-3.28-.4c-2.56.32-5.36.4-7.76-.72-1.36-.72-2.88-2.08-4.48-1.52-.8.16-1.2,1-1.92,1.28-.56.16-1.2.16-1.52.8-.56.8-1.92.32-2.48-.32s-.32-1.52-.32-2.32a4.28,4.28,0,0,0-.24-1.76,1.69,1.69,0,0,0-1.6-.56c-1.28.4-3.68.4-3.6-1.44-.08-1,.56-2.16.24-3.2a2.7,2.7,0,0,0-.48-1c-.24-.24-.56-.16-.88-.32a.85.85,0,0,1-.56-.48c-.4-1.52-2.8-.56-4-.88-2.08.08-4.64-.56-6.56.4-.16.24-.16.48-.32.72s-.48.32-.8.4c-.8.16-1.6-.16-2.4-.08-.4.16-.56.72-.88,1h0c.08.64-.8.64-1.2.64-1,0-1.28-.88-1-1.68-.08-.56-.16-1.2-.24-1.76a5.38,5.38,0,0,0-1.52-2.4,21.45,21.45,0,0,0-6.32-1.92,10.53,10.53,0,0,1-2.72-.32,2.18,2.18,0,0,1-1.36-2,12,12,0,0,1,.16-1.76c-.64-1-1.52-1.68-2.24-2.56a6.67,6.67,0,0,0-3.92-2.48,4.49,4.49,0,0,1-2.32-.48c-.64-.4-.8-1.12-1.12-1.76a8.44,8.44,0,0,0-1.76-2.4,21.81,21.81,0,0,0-4.48-3.2,22,22,0,0,1-2.08-1.76.6.6,0,0,0-.72,0,.51.51,0,0,0-.4.48c-.16.64-.16,1.76-1,1.76a6.13,6.13,0,0,1-3.28-2c-.8-1.2-.72-2.88-2-3.68-.72-.4-1.44.08-2.16.32a18.41,18.41,0,0,0-2.72,1c-.24.4-.4.88-.8,1.12a1.63,1.63,0,0,1-1.6-.08,1.47,1.47,0,0,0-1.36-.48,1.57,1.57,0,0,1-2,.08,5.66,5.66,0,0,1-1-1.44,20,20,0,0,0-2.56-2.64c-1.44-1.2-2.72-2.8-4.56-3.28a11.57,11.57,0,0,0-2.88,0h0a.36.36,0,0,1-.4,0h-.56a.38.38,0,0,1-.4-.4c0-.48.72-.4,1-.4h0a21.94,21.94,0,0,1,3-1.76c5.92-3.36,12.56-5.2,19.12-6.72,27.36-5.92,55,1.36,82.48,2.72a113.17,113.17,0,0,0,13.76-.64c.08-.08.16-.16.24-.16,7.76-1.52,15.6-2.32,23.36-3.6,22.72-4.32,46-6.4,69-3.44,8.4,1.36,17,2.24,25.28,4.08,11.2,2.64,22.4,5.36,33.28,8.88,14,4.4,28.16,8.48,41.68,14.4,9,3.36,18.08,6.08,27,9.36,7.52,2.56,14.72,6,22.24,8.48,5.68,1.84,11.76,2.4,17.52,3.84,9,2.56,17.92,5.12,26.72,8.32a315.93,315.93,0,0,1,34.24,15.84c6.32,3.52,12.32,7.59,18.32,11.51,11.92,8.32,23.68,17.36,32.56,29,5,6.8,8.72,14.48,12.24,22.16.08-.08.16-.08.32-.16,12-16.48,28.08-29.52,41.68-44.56,3.92-4.88,7.44-10.08,11.44-15,7.2-8.48,15.28-16.08,23.12-23.92,6.88-6.4,14.16-12.32,21.6-18.08a30.36,30.36,0,0,1,8.56-7.12c.56-.24,1.12-.56,1.76-.8,2.88-2.08,5.76-4.16,8.64-6.16a4.79,4.79,0,0,1,6.32-.56c14.4-6.24,29.12-11.92,43.92-17.2,21.68-5.68,43.92-9.2,66-13.2,52.64-9.28,106.72-5.44,159,3.84,37.28,8,73.12,21.2,109.36,32.88,67,20.64,129,53.75,191.2,85.51,46.64,22.88,93.92,46.24,134.88,78.56,1.12.88,2.16,1.76,3.2,2.64.48-.32.88-.64,1.28-1a35,35,0,0,1,10.72-5.52c4.32-1.52,8.64-3,13-4.24,12-3.68,24.4-3,36.72-3.28,7-.16,14.08-1,21.12-1.36,7.52-.4,15.12,0,22.64.24a164.14,164.14,0,0,1,32.32,4.72A232.23,232.23,0,0,1,793-677.29c3.76,1,7.68,1.44,11.52,2.08,2.4.24,4.8-.16,7,.8a1.75,1.75,0,0,1,.4.24A.71.71,0,0,0,812.54-674.08Z"
        transform="translate(703.22 993.84)" />
    <path class="st0"
        d="M1176.86,32.32a136,136,0,0,1,.4,26.16c-.4,2.64-.88,5-1,7.52.08,3.12,1.12,6.08,1.28,9.2a7.89,7.89,0,0,1-.24,1.92c.32,2,.72,5.36-2,4.8-.08,0-.08,0-.16-.08h-1a20.82,20.82,0,0,0-6.24,1.84c-1.92,1.36-2.64,3.84-4.72,5.12-1.84,1.44-4.24,1.12-6.4,1a16.54,16.54,0,0,0-4.24,2.24c-1.52,1.6-2.16,3.92-3.36,5.76-1.68,3.52-2.32,7.44-3.6,11.12-1.68,2.72-5,4.4-5.6,7.84-.32,1.28.08,2.72-.56,4-3.92,6.4-11.84,6.88-18.08,9.76a18.11,18.11,0,0,0-4.32,2.56c-.24.56-1,.72-1.44,1.12l-3.44,3a30,30,0,0,1-3.52,3.6c-.4.4-.24,1-.24,1.52a21.15,21.15,0,0,1,.16,3.92c-.08.48-.64.64-1,1a38.81,38.81,0,0,1-5.52,4c-.56.32-1.12,1-1.76.64-2.56-.8-4.56-2.88-7.12-3.6a3.66,3.66,0,0,1-2.64-1.92c-.24-1.12.4-2.32.24-3.44a14.39,14.39,0,0,0-.48-1.76,1.43,1.43,0,0,1,.24-2.4c-.32-1-.4-1.92-.64-2.88-1-1.44-.88-1.28.16-2.64.8-.8.72-2.08.8-3.12a33.64,33.64,0,0,0-.4-5c-.16-1.76-.32-3.52-.32-5.28-.08.08-.24,0-.32-.08-.56-.56-1.52-1.12-1.2-2.08a1.22,1.22,0,0,1-1-1.6,1.46,1.46,0,0,1-1.28-1.68c0-.24.08-.64.08-.88a9,9,0,0,1-.32-2.56,16.39,16.39,0,0,0-2-6.8c-1.92-2.64-4.56-4.64-6.88-6.8-3.52-4.48-3.2-10.4-4.08-15.76-.56-3.36.32-6.8.4-10.16a24.16,24.16,0,0,0-4.64-9.68c-.64-.8-1.44-1.6-1.12-2.72a6.64,6.64,0,0,0,.16-2.8c-2.32-5.52-5.28-10.72-7.6-16.24-.48-.56-.8-1.36-1.44-1.76a3.89,3.89,0,0,0-2.32-.24,1.44,1.44,0,0,0-.72.32h0c-.56,1-1,2.56-2.4,2.4-1-.4-1.92-1.76-3.12-1.44-.56.4-1.2,1.2-2,1-.4-.24-.48-.8-.64-1.2-.8-2-.4-4.16-.8-6.16a3.11,3.11,0,0,0-.88-1.68c-.4-.32-.8-.48-1-.88-.72-1-.4-2.24-.4-3.36,0-3.6.24-7.52-.88-11-.24-.16-.64-.08-.8-.16a1.56,1.56,0,0,1-1.2-1.12,86.59,86.59,0,0,1-1.36-9,48.5,48.5,0,0,0-.72-5.84,3.57,3.57,0,0,0-1.12-2.08c-.24-.24-.64-.32-1-.56-.56-.08-1.44-.64-1.76-.64-1.28-.32-2.56-.48-3.76-.88-.8,0-1.68-.32-2.32.16a6.28,6.28,0,0,1-3.36,2.4c-.64.16-1.28-.24-1.92-.16a17.65,17.65,0,0,0-2.32,2.56,22.09,22.09,0,0,1-2.48,3c-.4.48-1,.88-1,1.52s.8.8,1.28,1.2a4.18,4.18,0,0,1,2.32,2.88c.4,5.6-6,8.4-10.56,9.52a6.23,6.23,0,0,1-3.6.72c-3,.08-5-.24-6.48-3-.32-.4-.88-.56-1.28-.88a2.33,2.33,0,0,1-.4-1.76,3.7,3.7,0,0,1-.88-2.56,3.52,3.52,0,0,0-1.28-.16c-1,.08-2.08-.32-3.12-.24a4.12,4.12,0,0,0-2,1.28,13.07,13.07,0,0,1-3.76,2.56,6.47,6.47,0,0,1-2.48,0,1.67,1.67,0,0,0-.48.32c-.88.48-1.84-.24-2.64-.56a22,22,0,0,1-2.4-1.12,13.88,13.88,0,0,0-3.52-1.12c-.72-.16-1.44.16-2.08-.24-.48-.32-.88-.72-1.36-1a3.3,3.3,0,0,1-.88-.56c-.48-.56-.4-1.36-.56-2.08a7.8,7.8,0,0,0-1-3.2c-1.36-.8-.8-2.16.08-3,.32-1.92-.56-4.8,2-5.52a2.18,2.18,0,0,0,1-.56.61.61,0,0,0,.16-.4c-.32-1.68,1-3,1.12-4.72a3.12,3.12,0,0,0-.32-2.24c-.64-2.56-2.08-5-2.32-7.6-.32-1,3-8.4,3.6-5.52.88,2.08,1,4.4,1.28,6.56a47.71,47.71,0,0,1,.88,5.6,9.5,9.5,0,0,0,1,2,10.21,10.21,0,0,0,4,2.16c2.88,1.36,6.24,2,8.8,3.76.32.16.56-.16.8-.24a18.88,18.88,0,0,1,5.28-3.28,37.39,37.39,0,0,0,3.92-2.16,12.34,12.34,0,0,1,3.92-2.08c1.36-.32,2.56.48,3.76.88a3.34,3.34,0,0,0,2.72-.64c4.32-4.08,7.44-9.36,10.16-14.56,1.76-3.76,2.88-7.84,4.88-11.52.56-.8,1.52-1.2,2.08-1.92a4.91,4.91,0,0,0,.24-3.2c-.48-.8-2-1.28-1.36-2.48a33,33,0,0,0,1.44-8.32c.08-2.56-.72-5-.88-7.6a50.89,50.89,0,0,0-4.08-10.16c-2.48-4.4-5.2-8.72-7.76-13.2-1.28-2.24-2.16-4.72-3.6-6.8-1.2-2-3.44-3.6-3.68-6.08a4.65,4.65,0,0,1-.24-2.64h0a8.64,8.64,0,0,0-.72-4.08c-2.16-3.52-6.24-4.8-9.68-6.56a15.47,15.47,0,0,1-4.88-3.6c-1-1.36-1.28-3.2-2.24-4.64-3-5.76-9.68-7.36-14.48-11a18.59,18.59,0,0,1-4.72-4.64,13.53,13.53,0,0,0-2.32-3.28,10.23,10.23,0,0,0-5.12-.88,7,7,0,0,1-3.92-2.08,45.76,45.76,0,0,0-3.92-3,14.17,14.17,0,0,0-4.24-2.16c-.8-.32-2.24-.4-2.4-1.52a3,3,0,0,1,1-2.72c.32-.48.8-1,.48-1.6a5,5,0,0,0-1.76-1.68,1.52,1.52,0,0,1-.4-1.52,1.52,1.52,0,0,0,.08-1h0a22.48,22.48,0,0,0-6.24-8.72,5.57,5.57,0,0,0-1.84-.88c-.8-.16-1.68-.32-2.08-1.2-1.52-5.68-6.08-9.52-10.48-13.12a181.21,181.21,0,0,0-14.56-11.28,76.58,76.58,0,0,1-7.44-7,34.22,34.22,0,0,0-3.92-4.4,76.28,76.28,0,0,0-13.36-8.32c-3.12-1.44-4.8-4.48-6.88-7-3-2.4-6.4-4.08-9.68-6.08-3.2-2.4-7-4-10.08-6.48a78.53,78.53,0,0,0-7.2-5.2c-4.48-3.2-8.8-6.56-13-10.08-8.08-6.16-16.56-11.6-25.12-17.12-8.72-5.76-17-11.92-25.76-17.6-4-2.64-7.76-5.76-12.08-7.84h-.16c-.72-.32-1.36-.64-2.08-1-.32-.08-.64-.24-1-.32-.24.16-.56-.08-.56-.4l-7.92-3.84c-3.12-1.84-6-4.08-9.2-5.76-5.84-3.28-11.52-6.8-17.36-10-2.72-1.6-5.36-3.6-8.24-4.8a.28.28,0,0,1-.16-.08h-.08a78.65,78.65,0,0,0-8.56-1.2,34,34,0,0,1-2.16-3.68c-4.08,0-8.32-.4-12.32.16h-.16c-1,1.2-1.84,2.4-2.72,3.68s-2,2.64-2.88,4.08c-.32.4-.64,1.44-1.28,1.12-.4-.32-1-.48-1.2-1-.08-.08-.08-.08-.08-.16v-.08a.28.28,0,0,1,.08-.16c1-2.16,2.8-4,4-6.08a28.85,28.85,0,0,1,2.32-3.44,61.4,61.4,0,0,0-6.48-4.4c-2.64-1.76-5.68-3-7.92-5.28-.24-.4.16-.8.32-1.12.8-1.12,1.76-2.08,2.48-3.28-3.84-2.32-7.36-5.28-11.6-6.8a27.87,27.87,0,0,1-2.24,3.12c-.4.48-1,1.2-1.68.72-2.32-1.44-4.72-2.88-7-4.32-3.12-1.68-6-3.68-9-5.6a6.36,6.36,0,0,1-1.44-1.12c-.48-1,.4-2,.64-2.88-2.88-1.84-5.84-4-9.12-5-1.84,4.32-1.6,4.08-3.92,3.84a18.87,18.87,0,0,0-2.32-.08c.16.88-.32,2.56-.24,3.12,0,1.84-.64,3.6-.72,5.44,2.48,3.12,4.64,6.4,7,9.68,1,1.36,2.08,2.56,3,3.92,1.52.88,3,1.76,4.56,2.56a55.9,55.9,0,0,0,6.32,4.4c8.56,5.2,17.12,10.4,25.52,15.84,3.84,2.48,7.76,4.64,11.52,7.2.24.24.64.4.8.64,1-.08,1.84-.08,2.8-.16.8-.16.88.56,1,1.12-.08.64.24,1.44-.08,2a1.79,1.79,0,0,1-1.12.24h-1.12c-.24-.16-.4-.32-.64-.48s-.72-.48-1-.72c-.16-.08-.32-.24-.48-.32s-.32-.24-.48-.32-.16-.08-.24-.16c-.72-.4-1.36-.88-2.08-1.28s-1.44-1-2.16-1.36h0c-.72-.48-1.44-.88-2.16-1.36h0c-.08,0-.08-.08-.16-.08h0c-.64-.4-1.36-.88-2.08-1.28h0c-1-.56-2.08-1.2-3.12-1.76a14.86,14.86,0,0,0-1.52-.88c-.48-.32-1-.56-1.44-.88h0c-.24-.16-.56-.32-.8-.48s-.56-.4-.88-.56a8.43,8.43,0,0,1-.88-.56c-.08-.08-.24-.08-.32-.16s-.4-.24-.56-.32h0a.28.28,0,0,1-.16-.08l-.48-.24c-.56-.32-1-.64-1.6-1-5.92-3.44-12.08-6.56-17.84-10.16-4.4-2.48-8.48-5.52-12.88-8.08a.6.6,0,0,1-.32-.08c-.48-.48-1.44-.32-1.68-1-.64-1.52-1.36-3.12-2.08-4.64-1-1.92-1.92-4-3-6a31,31,0,0,1-.88-6.08,59.81,59.81,0,0,1,0-6.56,19.46,19.46,0,0,1,.24-3v-.64c.56-7.28,7.52-11.6,12.08-16.4,7.84-7.52,16.56-14,25.12-20.56A172.43,172.43,0,0,0,708.62-415c2.48-2.64,5.2-5.2,7.2-8.16,1.52-2.16,3.44-4.08,4.64-6.4,1-1.84,2-3.76,3.2-5.52a6.61,6.61,0,0,0,.56-1v-.08c1.28-2.72,3-5.28,4.32-8,3.76-6.8,6.16-14.24,8.8-21.52,2.88-7.44,4.32-15.28,5.84-23.12.64-4,1.68-7.92,2.48-11.84,0-.4-.08-.72-.08-1.12,0-4.08,1-8,1.6-12.08v-.16a3.4,3.4,0,0,1,.16-.88c.08-.64.08-1.36.16-2.08.24-3.76-.32-7.52-.32-11.2.08-4.4-.08-8.88-.16-13.2,0-5.92-1.36-11.84-1.12-17.68.48-4.4,2.8-8.32,4.8-12.24,1.52-2.8,2.72-5.68,4.4-8.4,1.6-2.24,2.56-4.88,3.76-7.36,1.28-2.24,2.24-4.64,3.28-7a26.29,26.29,0,0,1,1.28-2.64c.8-3.12,2.48-6,3.76-9,3.76-8.48,7.76-17,13.92-24.08.4-.4.88-.8,1.36-1.2a6.66,6.66,0,0,1,.32-1.2c.48-.88,1.6-.72,2.4-.8h.24c.64-.4,1.2-.72,1.84-1,.56-.64,1.28-1.52,2.24-1.6.4.08.4.72.72.72,2.24-1.2,3.76-3.28,5.68-4.88a93.11,93.11,0,0,0,6.72-7c1.44-1.36,2.8-2.8,4.16-4.32.64-1.28,1.44-2.56,2.08-3.84.88-1.6,1.52-3.44,2.24-5.12a22.5,22.5,0,0,0,1.68-3.76c.56-1.44,1.2-.56,2.16-.08a14.31,14.31,0,0,0,4.08-.88c.32,0,.8-.32,1.2-.32l-.08-.08h0a.47.47,0,0,1,.24-.72h.4c1.12.08,2.16.08,3.28.24,6.4.32,8.64,2.16,12.16,7.36,3.68,6.16,5.76,13.2,9.36,19.44,4.24,7.84,9.6,15,14.4,22.48,4.32,6.72,8,13.92,12.24,20.8a164.42,164.42,0,0,0,9.28,14.08c3,3.76,6.4,7.2,9.52,10.88s6.16,7.76,9.2,11.68c5.44,6.88,9.44,14.64,13,22.64,3,6.16,5.76,12.48,6.32,19.36a156.14,156.14,0,0,1,.8,17.28,73.48,73.48,0,0,1-1,15.68c-1,5.52-2.72,10.88-4.16,16.32-1.12,4.8-1.76,9.68-3.84,14.16-3.68,8.08-7.84,16-10.08,24.64-.4,1.36-.72,2.72-1.12,4.08,13.84,14.48,26.8,29.84,40,45,7,8.4,13.76,16.88,21,24.88,3.76,4.24,7.12,8.72,11,12.72,1.76,1.76,3.52,3.52,5.36,5.2a146.6,146.6,0,0,1,18.4,13c6.48,5.92,12.48,12.32,19.36,17.76,9.44,7.76,19.28,15.2,28.4,23.44,7.36,7,14.32,14.56,21,22.32a302.23,302.23,0,0,1,30.4,46.56c4.88,8.8,9.92,17.28,14.48,26.16,4.4,8.48,8.72,17.12,13.52,25.28,3.52,6.16,7.6,12,11.12,18.16a273.7,273.7,0,0,1,17,38,285.29,285.29,0,0,1,11,44.56c1.52,10,2.48,20,3.6,30,1.6,13,2.64,25.76,5.92,38.32,1,3.76,2.24,7.52,3.12,11.28A112.3,112.3,0,0,1,1176.86,32.32Z"
        transform="translate(703.22 993.84)" />
    <polygon class="st0"
        points="516.16 0 1542.56 169.76 1520.32 321.6 1336.64 327.52 444.16 278.4 192.16 134.4 516.16 0" />
    <polygon class="st0"
        points="1880.08 1026.16 2001.76 189.6 1542.56 169.76 1516.48 328.8 1590.4 500.72 1536.24 617.04 1880.08 1026.16" />
    <path class="st0"
        d="M367.63-686.67c30.64,28.39,73.48,35.51,113.58,39.16a556.83,556.83,0,0,0,74,1.8c12.21-.52,24.43-1.38,36.57-2.77,9.75-1.11,19.83-2.74,27.94-8.69,17.35-12.72,16.79-36.27,14.61-55.48-.86-7.52-12.77-7.61-11.91,0,1.62,14.2,4,34.25-8.21,44.75-7,6-17.13,7-26,7.89q-16.47,1.69-33,2.39a556,556,0,0,1-66.2-1.14c-19.74-1.52-39.56-3.79-58.75-8.77-19.87-5.15-39-13.48-54.18-27.55-5.61-5.21-14.05,3.19-8.42,8.41Z"
        transform="translate(703.22 993.84)" />
    <polygon class="st0" points="2001.76 189.6 2001.76 0 0 0 1.04 142.08 2001.76 189.6" />
    <path class="st0" d="M1139.42,120.8l159.12-32v-893L1177.7-824.08" transform="translate(703.22 993.84)" />
</svg>