<svg viewBox="0 0 1440 438" preserveAspectRatio="none" xmlns="http://www.w3.org/2000/svg">
    <path
        d="M-441 321.393L-425.084 291.74L-389.374 284.804L-366.838 274.834L-345.702 250.458L-353.166 237.229L-342.85 221.945L-323.775 204.959L-307.957 192.8L-289.203 184.963L-260.937 161.299L-248.468 146.295L-210.063 138.835L-198.275 149.127L-180.926 152.048L-161.557 154.577L-142.017 150.782L-133.761 142.887L-143.116 130.724L-130.314 128.238L-114.725 132.899L-108.812 134.546L-96.6247 121.694L-79.6885 126.093L-46.6731 119.68L-40.7791 124.826L-29.3247 122.602L-20.0618 127.093L-38.5549 136.277L-68.2014 142.036L-77.3335 138.218L-83.2471 136.57L-84.7647 143.156L-80.8921 148.695L-59.6515 153.656L-40.0005 154.033L-23.0447 154.933L2.65073 157.631L29.0199 160.198L56.6255 158.331L76.8391 154.405L95.1424 155.043L112.34 160.79L125.816 158.172L129.394 144.196L127.955 136.787L115.827 139.143L111.804 136.429L105.537 125.764L139.226 119.22L142.89 138.08C144.566 143.113 149.26 154.317 154.619 158.868C159.978 163.419 172.634 162.825 178.293 161.959C185.436 160.338 199.146 159.166 196.838 167.443C194.53 175.72 234.843 167.517 255.287 162.381C262.206 160.804 275.565 156.625 273.65 152.524C271.255 147.397 283.567 160.383 300.241 163.435C313.581 165.877 366.75 161.468 391.667 158.958C403.014 159.782 426.709 160.819 430.707 158.364C434.705 155.91 455.055 161.324 464.73 164.338C475.273 164.62 496.055 166.501 494.841 171.77C493.627 177.038 510.942 173.069 519.751 170.426C534.417 171.538 563.099 174.728 560.492 178.589C557.235 183.416 573.517 184.447 580.647 185.159C586.351 185.729 596.5 182.779 600.861 181.233C608.521 183.473 626.996 191.954 639.613 207.956C652.231 223.959 647.256 253.304 643.192 265.976L640.588 274.171C640.941 283.189 642.43 300.934 645.56 299.766C649.472 298.308 698.2 322.394 715.738 315.493C729.769 309.971 753.337 315.878 763.368 319.522C775.607 321.339 798.816 325.638 793.74 328.301C787.395 331.631 811.501 329.744 811.932 324.767C812.364 319.791 808.681 304.429 800.615 302.501C794.163 300.959 789.157 297.504 787.46 295.969L792.648 283.079L788.984 264.219C791.374 262.124 795.084 256.743 790.803 251.983C786.522 247.223 777.981 233.97 774.246 227.938L780.48 220.437L792.438 224.405L802.715 216.118L798.528 194.563C799.147 188.152 802.482 176.041 810.866 178.886C819.249 181.731 828.842 189.84 832.59 193.539C839.926 197.706 858.1 205.36 872.115 202.638C886.129 199.915 898.565 206.82 903.03 210.612L944.426 222.143C948.412 223.466 957.327 225.928 961.1 225.195C964.873 224.463 986.863 231.841 997.386 235.622C994.598 236.863 989.633 240.343 992.088 244.34C995.156 249.336 1012.07 257.234 1021.94 250.425C1029.83 244.978 1029.95 253.295 1029.03 258.134C1035.27 257.855 1049.22 258.407 1055.12 262.853C1061.01 267.299 1062.63 259.53 1062.7 255.089C1079.67 260.879 1113.48 273.185 1112.92 276.089C1112.23 279.719 1162.35 296.546 1165.77 310.56C1168.5 321.771 1169.52 328.703 1169.69 330.767L1152.17 334.17C1152.22 342.783 1153.84 358.59 1160.01 352.918C1166.18 347.246 1181.45 346.891 1188.31 347.422C1191.12 351.071 1197.53 360.31 1200.71 368.079C1204.7 377.79 1206.94 385.742 1209.11 382.524C1210.85 379.95 1229.39 366.936 1238.44 360.75C1248.94 360.808 1269.37 362.992 1267.06 371.269C1264.75 379.546 1292.25 398.994 1306.29 407.684C1308.75 409.537 1315.7 411.45 1323.81 404.281C1333.96 395.321 1356.9 409.038 1361.73 412.294C1366.56 415.551 1374.01 407.114 1375.5 404.027C1376.7 401.557 1380.56 390.463 1382.34 385.224C1392.82 388.78 1414.28 397.753 1416.29 405.192C1418.79 414.492 1422.51 422.855 1424.8 423.81C1426.62 424.573 1442.29 433.46 1449.89 437.808V8.15382e-06L-441 0L-441 321.393Z"
        fill="#0075BF" />
</svg>